<?xml version="1.0" encoding="UTF-8"?><svg xmlns="http://www.w3.org/2000/svg" viewBox="0 0 17.17 26.38"><defs><style>.d{fill:#00553e;}</style></defs><g id="a"/><g id="b"><g id="c"><g><path class="d" d="M3.73,7.54v1.84s-.07-.01-.11-.01c-.41,0-.75,.34-.75,.75v1.14c0,.41,.34,.75,.75,.75,.17,0,.32-.06,.44-.15,.69,2.31,2.37,3.99,4.28,3.99s3.59-1.68,4.28-3.99c.12,.09,.28,.15,.44,.15,.41,0,.75-.34,.75-.75v-1.14c0-.41-.34-.75-.75-.75-.04,0-.07,0-.11,.01v-1.86c1.22-.55,2.07-1.78,2.07-3.2,0-1.94-1.57-3.51-3.51-3.51-.29,0-.58,.04-.86,.11-.64-.58-1.48-.91-2.36-.91s-1.71,.32-2.35,.9c-.27-.07-.55-.1-.84-.1-1.94,0-3.51,1.57-3.51,3.51,0,1.45,.88,2.69,2.13,3.23Zm1.38-5.24c.27,0,.52,.05,.77,.15,.31,.13,.66,.04,.87-.22,.38-.47,.95-.74,1.56-.74s1.18,.27,1.56,.74c.21,.26,.57,.35,.87,.22,.25-.1,.51-.16,.78-.16,1.11,0,2.01,.9,2.01,2.01s-.9,2.01-2.01,2.01c-.11,0-.22,0-.32-.03-.41-.06-.79,.21-.86,.62-.07,.41,.21,.79,.62,.86,.16,.03,.33,.04,.49,.04v1.54H5.23v-1.54h0c.41,0,.74-.34,.74-.76,0-.41-.34-.74-.75-.74h-.12c-1.11,0-2.01-.9-2.01-2.01s.9-2.01,2.01-2.01Z"/><path class="d" d="M6.74,16.68c-.12-.28-.39-.46-.69-.46h-1.41c-2.17,0-4.09,1.54-4.54,3.66-.14,.66-.13,1.35,.05,2.06l.95,3.86c.08,.34,.38,.57,.73,.57h2.94v-7.34l2.57-.96-.59-1.4Z"/><path class="d" d="M17.08,19.89c-.31-1.44-1.3-2.66-2.65-3.26-.6-.27-1.23-.4-1.89-.4h-2.53c-.31,0-.6,.2-.7,.49l-.67,1.83-2.97,1.12v6.71H15.36c.35,0,.65-.24,.73-.57l.95-3.86c.17-.71,.19-1.4,.05-2.06Zm-9.38,4.89c-.32,0-.58-.25-.58-.56,0-.32,.25-.58,.56-.58,.32,0,.58,.25,.58,.56,0,.32-.25,.58-.56,.58Zm0-2.86c-.32,0-.58-.25-.58-.56,0-.32,.25-.58,.56-.58,.32,0,.58,.25,.58,.56,0,.32-.25,.58-.56,.58Zm2.57,2.86c-.32,0-.58-.25-.58-.56,0-.32,.25-.58,.56-.58,.32,0,.58,.25,.58,.56,0,.32-.25,.58-.56,.58Zm0-2.86c-.32,0-.58-.25-.58-.56,0-.32,.25-.58,.56-.58,.32,0,.58,.25,.58,.56,0,.32-.25,.58-.56,.58Z"/></g></g></g></svg>