<?xml version="1.0" encoding="UTF-8"?><svg xmlns="http://www.w3.org/2000/svg" viewBox="0 0 48 46.01"><defs><style>.d{fill:#646464;}</style></defs><g id="a"/><g id="b"><g id="c"><g><path class="d" d="M36.59,5.4c-.67-.56-1.68-.48-2.24,.2-.56,.67-.48,1.68,.2,2.24,.67,.56,1.68,.48,2.24-.2,.57-.67,.48-1.68-.19-2.24Z"/><path class="d" d="M47.49,9.23L37.53,.87c-1.58-1.32-3.93-1.12-5.26,.46L12.28,25.15c-.17,.2-.27,.44-.31,.69-.23,.08-.45,.22-.62,.42L.86,38.76c-1.39,1.66-1.06,4.23,.73,5.74l.54,.46c1.79,1.51,4.38,1.38,5.78-.28l10.49-12.5c.39-.46,.43-1.09,.15-1.59,.03-.03,.07-.06,.1-.09l.58-.69,6.46,5.42c.45,.38,1.1,.44,1.61,.14,.56-.32,13.82-8.04,20.59-24.51,.23-.57,.07-1.23-.4-1.62Zm-20.78,23.16l-5.86-4.92c-.53-.44-1.19-.65-1.88-.59-.68,.06-1.31,.38-1.75,.91l-.75,.89s-.01,.02-.02,.03l-2.04-1.71s.02-.02,.03-.02L34.44,3.15c.32-.38,.89-.43,1.27-.11l9.16,7.69c-5.54,12.66-15.28,19.77-18.16,21.67Z"/></g></g></g></svg>