<?xml version="1.0" encoding="UTF-8"?><svg xmlns="http://www.w3.org/2000/svg" viewBox="0 0 48 48"><defs><style>.d{fill:#646464;}</style></defs><g id="a"/><g id="b"><g id="c"><g><path class="d" d="M34.86,42.56l-.07-.19c-.6-1.4-1.88-2.3-3.26-2.3h-4.01v-2.31c0-.73-.54-1.32-1.2-1.32h-1.54c-.58,0-1.11,.43-1.22,1.05-.16,.85,.43,1.6,1.18,1.6h.38v1.32h-6.62v-2.51c0-.64-.39-1.22-.95-1.34-.77-.17-1.45,.47-1.45,1.29v2.56h-6.62v-1.32h.67c.19,0,.38-.09,.51-.25,.88-1.12,.17-2.4-.8-2.4h-2.14c-.36,0-.64,.32-.64,.71v2.93h-2.89c-1.38,0-2.66,.9-3.26,2.3l-.78,2.85c-.27,.75-.12,1.62,.43,2.23,.34,.37,.82,.55,1.3,.55h31.99c.48,0,.96-.18,1.3-.55,.55-.6,.7-1.47,.43-2.23l-.72-2.66Z"/><path class="d" d="M46.74,12.31h-9.89c-.33,0-.59,.29-.59,.65v.63l-2.65,1.63c-.32-.38-.77-.6-1.25-.6H2.36c-.44,0-.88,.16-1.21,.49-.54,.56-.7,1.38-.43,2.1l1.68,5.12s.02,.06,.03,.09c.52,1.28,1.68,2.11,2.96,2.11H29.24c1.29,0,2.48-.85,2.96-2.17v-.04l1.35-4.07,2.83-1.74c.16,.25,.43,.42,.74,.42h9.62c.7,0,1.26-.62,1.26-1.38v-1.86c0-.76-.56-1.38-1.26-1.38Z"/><path class="d" d="M17.29,34.37h.06c.45-.03,1.32-.31,1.74-1.22,.57-1.21,.15-2.98-1.27-5.41-.11-.19-.3-.3-.51-.3s-.4,.11-.51,.3c-1.42,2.42-1.83,4.19-1.27,5.41,.42,.91,1.29,1.19,1.74,1.22Z"/><path class="d" d="M25.72,34.37h.06c.45-.03,1.32-.31,1.74-1.22,.57-1.21,.15-2.98-1.27-5.41-.11-.19-.3-.3-.51-.3s-.4,.11-.51,.3c-1.42,2.42-1.83,4.19-1.27,5.41,.42,.91,1.29,1.19,1.74,1.22Z"/><path class="d" d="M8.86,34.37h.06c.45-.03,1.32-.31,1.74-1.22,.57-1.21,.15-2.98-1.27-5.41-.11-.19-.3-.3-.51-.3s-.4,.11-.51,.3c-1.42,2.42-1.83,4.19-1.27,5.41,.42,.91,1.29,1.19,1.74,1.22Z"/><path class="d" d="M10.52,6.95l-.05,.09c-1.23,2.2-.46,4.02,.12,4.67,.18,.2,.42,.31,.66,.31,.23,0,.45-.09,.62-.28,.36-.38,.37-1,.03-1.39-.07-.09-.64-.87,.07-2.2,.56-.73,1.21-2.48,.04-4.58-.26-.47-.82-.61-1.24-.33-.43,.29-.56,.9-.3,1.36,.77,1.38,.18,2.19,.12,2.26l-.07,.08Z"/><path class="d" d="M16.82,5.54l-.03,.09c-1.36,3.52,.02,5.86,.08,5.96,.17,.28,.46,.44,.74,.44,.17,0,.34-.05,.49-.16,.41-.3,.53-.91,.27-1.37-.04-.06-.87-1.57,.05-4.03,.26-.5,1.24-2.7,.02-5.85-.19-.5-.72-.74-1.18-.53-.46,.21-.67,.8-.48,1.3,.96,2.49,.11,4.03,.08,4.08l-.05,.08Z"/><path class="d" d="M23.29,6.95l-.05,.09c-1.23,2.2-.46,4.02,.12,4.67,.18,.2,.42,.31,.66,.31,.23,0,.45-.09,.62-.28,.36-.38,.37-1,.03-1.39-.07-.09-.64-.87,.07-2.2,.56-.73,1.21-2.48,.04-4.58-.26-.47-.82-.61-1.24-.33-.42,.29-.56,.9-.3,1.36,.77,1.38,.18,2.19,.12,2.26l-.07,.08Z"/></g></g></g></svg>