<?xml version="1.0" encoding="UTF-8"?><svg xmlns="http://www.w3.org/2000/svg" viewBox="0 0 48 48"><defs><style>.d{fill:#646464;}</style></defs><g id="a"/><g id="b"><g id="c"><g><path class="d" d="M7.91,.08h0C6.33,.08,4.65,.9,3.43,2.26,1.28,4.64-1.35,11.95,.8,16.75c.75,1.69,2.4,3.67,5.94,4.05v4.17c-1.18,.15-2.1,1.16-2.1,2.38v18.26c0,1.32,1.08,2.4,2.41,2.4h1.78c1.33,0,2.41-1.08,2.41-2.4V27.34c0-1.22-.92-2.22-2.1-2.38v-4.16c3.54-.36,5.18-2.32,5.94-4,2.16-4.8-.51-12.15-2.68-14.55C11.17,.9,9.49,.08,7.91,.08Zm4.97,15.74c-.8,1.78-2.4,2.64-4.9,2.64h-.03c-2.52,0-4.14-.89-4.94-2.69-1.63-3.65,.5-10,2.22-11.91,.91-1.01,1.99-1.37,2.69-1.37h0c.7,0,1.78,.36,2.7,1.38,1.75,1.93,3.91,8.31,2.27,11.96Z"/><path class="d" d="M26.55,13.86c.67,0,1.21-.54,1.21-1.2V1.2c0-.66-.54-1.2-1.21-1.2s-1.21,.54-1.21,1.2V12.66c0,.66,.54,1.2,1.21,1.2Z"/><path class="d" d="M31.8,0c-.67,0-1.21,.54-1.21,1.2V13.02c0,2.21-1.81,4.02-4.04,4.02s-4.04-1.8-4.04-4.02V1.2c0-.66-.54-1.2-1.21-1.2s-1.21,.54-1.21,1.2V13.02c0,3.13,2.26,5.74,5.24,6.3v5.41c-1.18,.15-2.1,1.16-2.1,2.38v18.48c0,1.32,1.08,2.4,2.41,2.4h1.78c1.33,0,2.41-1.08,2.41-2.4V27.12c0-1.22-.92-2.22-2.1-2.38v-5.41c2.98-.56,5.24-3.17,5.24-6.3V1.2c0-.66-.54-1.2-1.21-1.2Z"/><path class="d" d="M48,29.76c0-10.41-.85-18.19-2.52-23.12-1.46-4.3-3.26-5.53-4.13-6.12-.07-.05-.13-.09-.19-.13-.47-.35-1.09-.4-1.61-.14-.57,.29-.92,.88-.92,1.55V45.41c0,1.43,1.17,2.59,2.6,2.59h1.4c1.44,0,2.6-1.16,2.6-2.59v-14.45h2.76v-1.2Zm-2.76-1.2h-4.19V3.39c1.75,1.88,4.43,7.2,4.54,25.17h-.35Z"/></g></g></g></svg>