<svg xmlns="http://www.w3.org/2000/svg" xmlns:xlink="http://www.w3.org/1999/xlink" width="200" zoomAndPan="magnify" viewBox="0 0 150 52.499999" height="70" preserveAspectRatio="xMidYMid meet" version="1.0"><defs><clipPath id="id1"><path d="M 0.707031 0 L 149.292969 0 L 149.292969 52.003906 L 0.707031 52.003906 Z M 0.707031 0 " clip-rule="nonzero"/></clipPath><clipPath id="id2"><path d="M 67.117188 18.824219 L 108.480469 18.824219 L 108.480469 19.605469 L 67.117188 19.605469 Z M 67.117188 18.824219 " clip-rule="nonzero"/></clipPath><clipPath id="id3"><path d="M 41.617188 43.257812 L 108.480469 43.257812 L 108.480469 44 L 41.617188 44 Z M 41.617188 43.257812 " clip-rule="nonzero"/></clipPath><clipPath id="id4"><path d="M 104 8 L 108.480469 8 L 108.480469 13 L 104 13 Z M 104 8 " clip-rule="nonzero"/></clipPath><clipPath id="id5"><path d="M 41.617188 8 L 46 8 L 46 13 L 41.617188 13 Z M 41.617188 8 " clip-rule="nonzero"/></clipPath><clipPath id="id6"><path d="M 68 0.753906 L 71 0.753906 L 71 3 L 68 3 Z M 68 0.753906 " clip-rule="nonzero"/></clipPath><clipPath id="id7"><path d="M 78 0.753906 L 81 0.753906 L 81 3 L 78 3 Z M 78 0.753906 " clip-rule="nonzero"/></clipPath><clipPath id="id8"><path d="M 74.011719 44.683594 L 76.484375 44.683594 L 76.484375 51.265625 L 74.011719 51.265625 Z M 74.011719 44.683594 " clip-rule="nonzero"/></clipPath></defs><g clip-path="url(#id1)"><path fill="#ffffff" d="M 0.707031 0 L 149.292969 0 L 149.292969 59.433594 L 0.707031 59.433594 Z M 0.707031 0 " fill-opacity="1" fill-rule="nonzero"/><path fill="#ffffff" d="M 0.707031 0 L 149.292969 0 L 149.292969 52.003906 L 0.707031 52.003906 Z M 0.707031 0 " fill-opacity="1" fill-rule="nonzero"/><path fill="#ffffff" d="M 0.707031 0 L 149.292969 0 L 149.292969 52.003906 L 0.707031 52.003906 Z M 0.707031 0 " fill-opacity="1" fill-rule="nonzero"/></g><path fill="#fd5ea6" d="M 61.574219 19.226562 C 61.574219 19.394531 61.4375 19.527344 61.269531 19.527344 L 57.378906 19.527344 C 57.210938 19.527344 57.074219 19.394531 57.074219 19.226562 C 57.074219 19.058594 57.210938 18.921875 57.378906 18.921875 L 61.269531 18.921875 C 61.4375 18.921875 61.574219 19.058594 61.574219 19.226562 " fill-opacity="1" fill-rule="nonzero"/><g clip-path="url(#id2)"><path fill="#fd5ea6" d="M 108.480469 19.226562 C 108.480469 19.394531 108.34375 19.527344 108.175781 19.527344 L 67.546875 19.527344 C 67.378906 19.527344 67.246094 19.394531 67.246094 19.226562 C 67.246094 19.058594 67.378906 18.921875 67.546875 18.921875 L 108.175781 18.921875 C 108.34375 18.921875 108.480469 19.058594 108.480469 19.226562 " fill-opacity="1" fill-rule="nonzero"/></g><g clip-path="url(#id3)"><path fill="#fd5ea6" d="M 108.480469 43.671875 C 108.480469 43.839844 108.34375 43.976562 108.175781 43.976562 L 41.921875 43.976562 C 41.753906 43.976562 41.617188 43.839844 41.617188 43.671875 C 41.617188 43.503906 41.753906 43.371094 41.921875 43.371094 L 108.175781 43.371094 C 108.34375 43.371094 108.480469 43.503906 108.480469 43.671875 " fill-opacity="1" fill-rule="nonzero"/></g><path fill="#fd5ea6" d="M 66.347656 6.859375 C 66.347656 6.859375 67.375 4.59375 66.125 2.855469 C 65.484375 1.960938 64.570312 1.949219 64.347656 2.492188 C 63.699219 4.058594 66.421875 3.757812 66.332031 6.851562 " fill-opacity="1" fill-rule="nonzero"/><path fill="#fd5ea6" d="M 66.875 6.089844 C 66.875 6.089844 68.773438 4.539062 68.433594 2.460938 C 68.257812 1.394531 67.460938 0.984375 67.023438 1.367188 C 65.769531 2.464844 68.300781 3.386719 66.867188 6.074219 " fill-opacity="1" fill-rule="nonzero"/><path fill="#fd5ea6" d="M 65.101562 8.671875 C 65.101562 8.671875 66.03125 5.996094 64.4375 4.15625 C 63.621094 3.210938 62.585938 3.289062 62.386719 3.929688 C 61.816406 5.769531 64.871094 5.148438 65.085938 8.664062 " fill-opacity="1" fill-rule="nonzero"/><path fill="#fd5ea6" d="M 67.742188 18.394531 C 67.839844 18.355469 67.902344 18.261719 67.894531 18.152344 C 67.886719 18.035156 67.671875 15.308594 65.5625 13.625 C 64.175781 12.519531 62.308594 12.140625 60.011719 12.496094 C 57.738281 12.847656 55.621094 13.269531 53.753906 13.636719 C 49.824219 14.417969 46.71875 15.03125 45.195312 14.40625 C 45.070312 14.351562 44.925781 14.414062 44.871094 14.539062 C 44.820312 14.664062 44.882812 14.808594 45.007812 14.859375 C 46.667969 15.542969 49.679688 14.945312 53.851562 14.121094 C 55.714844 13.753906 57.824219 13.332031 60.085938 12.984375 C 62.238281 12.648438 63.976562 12.992188 65.25 14.007812 C 67.191406 15.550781 67.402344 18.160156 67.402344 18.1875 C 67.414062 18.320312 67.53125 18.425781 67.664062 18.414062 C 67.691406 18.414062 67.71875 18.40625 67.742188 18.394531 " fill-opacity="1" fill-rule="nonzero"/><path fill="#fd5ea6" d="M 62.554688 19.546875 C 62.554688 19.546875 63.300781 17.675781 64.933594 17.335938 C 66.566406 17 66.519531 18.292969 65.851562 18.644531 C 65.183594 18.992188 63.058594 19.179688 62.554688 19.546875 " fill-opacity="1" fill-rule="nonzero"/><path fill="#fd5ea6" d="M 65.1875 15.230469 C 65.1875 15.230469 63.054688 14.1875 61.449219 15.21875 C 59.847656 16.253906 60.625 16.996094 60.90625 17.113281 C 61.222656 17.242188 62.386719 17.226562 63.117188 16.257812 C 63.847656 15.289062 64.972656 15.1875 65.1875 15.230469 " fill-opacity="1" fill-rule="nonzero"/><path fill="#fd5ea6" d="M 57.800781 13.742188 C 57.800781 13.742188 55.039062 14.160156 54.734375 15.984375 C 54.429688 17.808594 56.273438 17.277344 56.546875 16.496094 C 56.71875 16.003906 57.175781 14.800781 57.539062 14.316406 C 57.902344 13.832031 58.09375 13.652344 57.800781 13.742188 " fill-opacity="1" fill-rule="nonzero"/><path fill="#fd5ea6" d="M 54.640625 14.957031 C 54.640625 14.957031 54.886719 14.191406 54.242188 14.488281 C 53.601562 14.789062 51.964844 15.738281 51.960938 16.773438 C 51.960938 17.804688 53.363281 17.652344 53.613281 17.050781 C 53.859375 16.449219 54.386719 15.394531 54.640625 14.957031 " fill-opacity="1" fill-rule="nonzero"/><path fill="#fd5ea6" d="M 52.105469 15.113281 C 52.105469 15.113281 50.191406 15.246094 49.304688 16.480469 C 48.417969 17.714844 50.0625 18.296875 50.597656 17.574219 C 51.128906 16.851562 51.527344 15.488281 52.105469 15.113281 " fill-opacity="1" fill-rule="nonzero"/><path fill="#fd5ea6" d="M 48.816406 15.550781 C 48.816406 15.550781 47.117188 15.390625 46.203125 15.839844 C 45.289062 16.285156 45.339844 16.964844 45.6875 17.320312 C 46.035156 17.671875 46.570312 17.917969 47.230469 17.34375 C 47.890625 16.765625 48.816406 15.550781 48.816406 15.550781 " fill-opacity="1" fill-rule="nonzero"/><path fill="#fd5ea6" d="M 46.515625 14.910156 C 46.515625 14.910156 43.898438 15.429688 43.09375 14.699219 C 42.289062 13.96875 42.542969 12.898438 43.765625 12.957031 C 44.992188 13.011719 45.691406 14.851562 46.976562 14.816406 C 48.261719 14.78125 46.515625 14.910156 46.515625 14.910156 " fill-opacity="1" fill-rule="nonzero"/><path fill="#fd5ea6" d="M 49.070312 14.078125 C 49.070312 14.078125 46.894531 14.617188 45.996094 13.660156 C 45.097656 12.703125 46.230469 11.828125 47.015625 12.269531 C 47.800781 12.710938 49.070312 14.078125 49.070312 14.078125 " fill-opacity="1" fill-rule="nonzero"/><path fill="#fd5ea6" d="M 51.996094 13.496094 C 51.996094 13.496094 50.042969 14.171875 48.949219 13.230469 C 47.855469 12.285156 48.894531 11.421875 49.554688 11.644531 C 50.214844 11.871094 51.335938 13.667969 51.996094 13.496094 " fill-opacity="1" fill-rule="nonzero"/><path fill="#fd5ea6" d="M 54.671875 12.878906 C 54.671875 12.878906 52.292969 13.570312 51.363281 12.457031 C 50.433594 11.347656 51.085938 10.839844 51.972656 10.804688 C 52.859375 10.769531 53.761719 13.09375 54.671875 12.878906 " fill-opacity="1" fill-rule="nonzero"/><path fill="#fd5ea6" d="M 57.457031 12.121094 C 57.457031 12.121094 55.164062 12.777344 54.078125 11.859375 C 52.996094 10.945312 53.246094 10.1875 53.894531 9.972656 C 55.417969 9.472656 56.371094 12.074219 57.457031 12.121094 " fill-opacity="1" fill-rule="nonzero"/><path fill="#fd5ea6" d="M 60.175781 11.523438 C 60.175781 11.523438 57.546875 12.179688 56.292969 10.605469 C 55.035156 9.03125 57.296875 8.457031 57.914062 9.066406 C 58.535156 9.671875 59.554688 11.3125 60.175781 11.523438 " fill-opacity="1" fill-rule="nonzero"/><path fill="#fd5ea6" d="M 62.875 11.789062 C 62.875 11.789062 59.617188 11.546875 59.003906 9.304688 C 58.496094 7.449219 60.746094 7.414062 61.160156 8.40625 C 61.519531 9.257812 62.078125 11.320312 62.875 11.789062 " fill-opacity="1" fill-rule="nonzero"/><path fill="#fd5ea6" d="M 64.445312 12.242188 C 64.445312 12.242188 61.96875 10.433594 61.835938 8.558594 C 61.703125 6.679688 63.75 6.46875 64.238281 8.121094 C 64.390625 8.644531 63.414062 10.421875 64.445312 12.242188 " fill-opacity="1" fill-rule="nonzero"/><path fill="#fd5ea6" d="M 66.8125 13.6875 C 66.8125 13.6875 65.390625 12.671875 65.507812 10 C 65.582031 8.339844 66.949219 8.335938 67.367188 8.628906 C 67.789062 8.917969 68.09375 10.125 67.394531 11.480469 C 66.691406 12.839844 66.65625 13.554688 66.8125 13.6875 " fill-opacity="1" fill-rule="nonzero"/><path fill="#fd5ea6" d="M 67.597656 14.925781 C 67.597656 14.925781 67.097656 13.167969 68.394531 11.332031 C 69.695312 9.488281 71.191406 10.597656 70.886719 11.625 C 70.582031 12.652344 68.363281 13.410156 67.597656 14.925781 " fill-opacity="1" fill-rule="nonzero"/><path fill="#fd5ea6" d="M 68.125 16.039062 C 68.125 16.039062 68.886719 13.625 71.355469 13.230469 C 73.824219 12.832031 73.402344 15.339844 71.730469 15.40625 C 70.054688 15.46875 68.902344 15.417969 68.125 16.039062 " fill-opacity="1" fill-rule="nonzero"/><path fill="#fd5ea6" d="M 68.136719 17.265625 C 68.136719 17.265625 69.394531 15.878906 71.746094 16.5625 C 74.101562 17.25 71.921875 18.820312 71.132812 18.449219 C 70.34375 18.078125 68.800781 17.089844 68.136719 17.265625 " fill-opacity="1" fill-rule="nonzero"/><path fill="#fd5ea6" d="M 61.894531 13.570312 C 61.894531 13.570312 59.378906 13.453125 58.082031 14.824219 C 56.789062 16.195312 58.457031 17.398438 59.550781 16.179688 C 60.640625 14.957031 60.980469 14.015625 61.894531 13.570312 " fill-opacity="1" fill-rule="nonzero"/><path fill="#fd5ea6" d="M 66.195312 15.023438 C 66.058594 14.84375 62.863281 10.597656 65.390625 7.78125 C 68.234375 4.621094 67.699219 2.921875 67.691406 2.90625 L 68.074219 2.765625 C 68.101562 2.84375 68.726562 4.683594 65.695312 8.054688 C 63.390625 10.617188 66.488281 14.734375 66.519531 14.773438 " fill-opacity="1" fill-rule="nonzero"/><path fill="#fd5ea6" d="M 74.867188 9.445312 C 74.867188 9.445312 74.445312 6.625 73.566406 4.277344 C 72.886719 2.464844 74.058594 1.582031 74.773438 1.5625 C 75.484375 1.539062 76.441406 2.53125 76.015625 4.050781 C 75.394531 6.277344 74.867188 9.445312 74.867188 9.445312 " fill-opacity="1" fill-rule="nonzero"/><path fill="#fd5ea6" d="M 75.433594 9.515625 C 75.433594 9.515625 76.125 7.175781 76.289062 5.042969 C 76.417969 3.394531 77.648438 3.128906 78.207031 3.371094 C 78.765625 3.613281 79.148438 4.722656 78.269531 5.75 C 76.988281 7.25 75.433594 9.515625 75.433594 9.515625 " fill-opacity="1" fill-rule="nonzero"/><path fill="#fd5ea6" d="M 75.972656 10.082031 C 75.972656 10.082031 76.742188 8.050781 78.140625 6.34375 C 79.105469 5.164062 80.042969 5.316406 80.40625 5.746094 C 80.773438 6.171875 80.691406 7.421875 79.488281 7.738281 C 77.539062 8.246094 75.972656 10.082031 75.972656 10.082031 " fill-opacity="1" fill-rule="nonzero"/><path fill="#fd5ea6" d="M 76.222656 10.414062 C 76.222656 10.414062 77.574219 9.082031 79.304688 8.234375 C 80.503906 7.648438 81.191406 8.113281 81.324219 8.585938 C 81.460938 9.058594 80.941406 10.019531 79.867188 9.832031 C 78.136719 9.523438 76.222656 10.414062 76.222656 10.414062 " fill-opacity="1" fill-rule="nonzero"/><path fill="#fd5ea6" d="M 74.257812 9.515625 C 74.257812 9.515625 73.566406 7.175781 73.402344 5.042969 C 73.273438 3.394531 72.046875 3.128906 71.484375 3.371094 C 70.925781 3.613281 70.542969 4.722656 71.421875 5.75 C 72.703125 7.25 74.257812 9.515625 74.257812 9.515625 " fill-opacity="1" fill-rule="nonzero"/><path fill="#fd5ea6" d="M 73.71875 10.082031 C 73.71875 10.082031 72.949219 8.050781 71.550781 6.34375 C 70.585938 5.164062 69.648438 5.316406 69.285156 5.746094 C 68.921875 6.171875 69 7.421875 70.203125 7.738281 C 72.152344 8.246094 73.71875 10.082031 73.71875 10.082031 " fill-opacity="1" fill-rule="nonzero"/><path fill="#fd5ea6" d="M 73.46875 10.414062 C 73.46875 10.414062 72.117188 9.082031 70.386719 8.234375 C 69.1875 7.648438 68.5 8.113281 68.367188 8.585938 C 68.234375 9.058594 68.75 10.019531 69.824219 9.832031 C 71.554688 9.523438 73.46875 10.414062 73.46875 10.414062 " fill-opacity="1" fill-rule="nonzero"/><path fill="#fd5ea6" d="M 74.796875 10.003906 C 75.589844 10.003906 76.234375 10.648438 76.234375 11.441406 C 76.234375 12.230469 75.589844 12.875 74.796875 12.875 C 74.003906 12.875 73.359375 12.230469 73.359375 11.441406 C 73.359375 10.648438 74.003906 10.003906 74.796875 10.003906 " fill-opacity="1" fill-rule="nonzero"/><path fill="#fd5ea6" d="M 74.796875 13.617188 C 75.386719 13.617188 75.863281 14.09375 75.863281 14.679688 C 75.863281 15.269531 75.386719 15.746094 74.796875 15.746094 C 74.207031 15.746094 73.730469 15.269531 73.730469 14.679688 C 73.730469 14.09375 74.207031 13.617188 74.796875 13.617188 " fill-opacity="1" fill-rule="nonzero"/><path fill="#fd5ea6" d="M 74.796875 16.625 C 75.230469 16.625 75.585938 16.980469 75.585938 17.414062 C 75.585938 17.847656 75.230469 18.199219 74.796875 18.199219 C 74.363281 18.199219 74.007812 17.847656 74.007812 17.414062 C 74.007812 16.980469 74.363281 16.625 74.796875 16.625 " fill-opacity="1" fill-rule="nonzero"/><g clip-path="url(#id4)"><path fill="#fd5ea6" d="M 105.59375 8.671875 C 106.492188 8.183594 107.617188 8.519531 108.105469 9.417969 C 108.59375 10.320312 108.257812 11.445312 107.355469 11.929688 C 106.457031 12.417969 105.332031 12.082031 104.84375 11.183594 C 104.355469 10.28125 104.691406 9.15625 105.59375 8.671875 " fill-opacity="1" fill-rule="nonzero"/></g><path fill="#fd5ea6" d="M 101.589844 8.09375 C 102.222656 7.753906 103.011719 7.988281 103.351562 8.617188 C 103.691406 9.25 103.457031 10.035156 102.828125 10.375 C 102.195312 10.71875 101.410156 10.484375 101.066406 9.851562 C 100.726562 9.222656 100.960938 8.4375 101.589844 8.09375 " fill-opacity="1" fill-rule="nonzero"/><path fill="#fd5ea6" d="M 98.996094 6.023438 C 99.445312 5.78125 100.007812 5.949219 100.25 6.398438 C 100.496094 6.847656 100.328125 7.410156 99.875 7.652344 C 99.425781 7.894531 98.863281 7.730469 98.621094 7.277344 C 98.378906 6.828125 98.542969 6.265625 98.996094 6.023438 " fill-opacity="1" fill-rule="nonzero"/><g clip-path="url(#id5)"><path fill="#fd5ea6" d="M 44.507812 8.671875 C 43.605469 8.183594 42.480469 8.519531 41.996094 9.417969 C 41.507812 10.320312 41.84375 11.445312 42.742188 11.929688 C 43.644531 12.417969 44.769531 12.082031 45.257812 11.183594 C 45.742188 10.28125 45.410156 9.15625 44.507812 8.671875 " fill-opacity="1" fill-rule="nonzero"/></g><path fill="#fd5ea6" d="M 48.507812 8.09375 C 47.878906 7.753906 47.089844 7.988281 46.75 8.617188 C 46.40625 9.25 46.644531 10.035156 47.273438 10.375 C 47.902344 10.71875 48.691406 10.484375 49.03125 9.851562 C 49.375 9.222656 49.140625 8.4375 48.507812 8.09375 " fill-opacity="1" fill-rule="nonzero"/><path fill="#fd5ea6" d="M 60.988281 4.753906 C 60.359375 4.410156 59.570312 4.644531 59.230469 5.277344 C 58.890625 5.90625 59.125 6.691406 59.753906 7.035156 C 60.386719 7.375 61.171875 7.140625 61.511719 6.511719 C 61.855469 5.878906 61.621094 5.09375 60.988281 4.753906 " fill-opacity="1" fill-rule="nonzero"/><path fill="#fd5ea6" d="M 51.105469 6.023438 C 50.65625 5.78125 50.09375 5.949219 49.847656 6.398438 C 49.605469 6.847656 49.773438 7.410156 50.222656 7.652344 C 50.675781 7.894531 51.234375 7.730469 51.480469 7.277344 C 51.722656 6.828125 51.554688 6.265625 51.105469 6.023438 " fill-opacity="1" fill-rule="nonzero"/><g clip-path="url(#id6)"><path fill="#fd5ea6" d="M 70.28125 0.875 C 69.828125 0.632812 69.265625 0.796875 69.023438 1.25 C 68.78125 1.699219 68.945312 2.261719 69.398438 2.503906 C 69.847656 2.746094 70.410156 2.578125 70.652344 2.128906 C 70.898438 1.679688 70.730469 1.117188 70.28125 0.875 " fill-opacity="1" fill-rule="nonzero"/></g><path fill="#fd5ea6" d="M 83.339844 6.859375 C 83.339844 6.859375 82.3125 4.59375 83.5625 2.855469 C 84.203125 1.960938 85.117188 1.949219 85.339844 2.492188 C 85.988281 4.058594 83.265625 3.757812 83.355469 6.851562 " fill-opacity="1" fill-rule="nonzero"/><path fill="#fd5ea6" d="M 82.8125 6.089844 C 82.8125 6.089844 80.914062 4.539062 81.253906 2.460938 C 81.429688 1.394531 82.230469 0.984375 82.664062 1.367188 C 83.921875 2.464844 81.386719 3.386719 82.820312 6.074219 " fill-opacity="1" fill-rule="nonzero"/><path fill="#fd5ea6" d="M 84.585938 8.671875 C 84.585938 8.671875 83.65625 5.996094 85.25 4.15625 C 86.066406 3.210938 87.101562 3.289062 87.300781 3.929688 C 87.871094 5.769531 84.820312 5.148438 84.601562 8.664062 " fill-opacity="1" fill-rule="nonzero"/><path fill="#fd5ea6" d="M 81.945312 18.394531 C 81.851562 18.355469 81.785156 18.261719 81.792969 18.152344 C 81.800781 18.035156 82.015625 15.308594 84.128906 13.625 C 85.515625 12.519531 87.382812 12.140625 89.675781 12.496094 C 91.949219 12.847656 94.066406 13.269531 95.933594 13.636719 C 99.863281 14.417969 102.96875 15.03125 104.492188 14.40625 C 104.621094 14.351562 104.761719 14.414062 104.816406 14.539062 C 104.867188 14.664062 104.808594 14.808594 104.679688 14.859375 C 103.019531 15.542969 100.007812 14.945312 95.839844 14.121094 C 93.976562 13.753906 91.863281 13.332031 89.601562 12.984375 C 87.449219 12.648438 85.710938 12.992188 84.4375 14.007812 C 82.496094 15.550781 82.285156 18.160156 82.285156 18.1875 C 82.273438 18.320312 82.15625 18.425781 82.023438 18.414062 C 81.996094 18.414062 81.96875 18.40625 81.945312 18.394531 " fill-opacity="1" fill-rule="nonzero"/><path fill="#fd5ea6" d="M 83.40625 17.207031 C 83.40625 17.207031 85.160156 16.203125 86.648438 16.957031 C 88.132812 17.707031 87.292969 18.691406 86.550781 18.546875 C 85.808594 18.40625 84.03125 17.234375 83.40625 17.207031 " fill-opacity="1" fill-rule="nonzero"/><path fill="#fd5ea6" d="M 84.5 15.230469 C 84.5 15.230469 86.636719 14.1875 88.238281 15.21875 C 89.839844 16.253906 89.0625 16.996094 88.78125 17.113281 C 88.464844 17.242188 87.300781 17.226562 86.570312 16.257812 C 85.839844 15.289062 84.71875 15.1875 84.5 15.230469 " fill-opacity="1" fill-rule="nonzero"/><path fill="#fd5ea6" d="M 91.886719 13.742188 C 91.886719 13.742188 94.648438 14.160156 94.953125 15.984375 C 95.261719 17.808594 93.414062 17.277344 93.140625 16.496094 C 92.96875 16.003906 92.511719 14.800781 92.148438 14.316406 C 91.785156 13.832031 91.59375 13.652344 91.886719 13.742188 " fill-opacity="1" fill-rule="nonzero"/><path fill="#fd5ea6" d="M 95.050781 14.957031 C 95.050781 14.957031 94.804688 14.191406 95.445312 14.488281 C 96.085938 14.789062 97.722656 15.738281 97.726562 16.773438 C 97.730469 17.804688 96.324219 17.652344 96.078125 17.050781 C 95.828125 16.449219 95.300781 15.394531 95.050781 14.957031 " fill-opacity="1" fill-rule="nonzero"/><path fill="#fd5ea6" d="M 97.585938 15.113281 C 97.585938 15.113281 99.496094 15.246094 100.382812 16.480469 C 101.269531 17.714844 99.625 18.296875 99.09375 17.574219 C 98.558594 16.851562 98.160156 15.488281 97.585938 15.113281 " fill-opacity="1" fill-rule="nonzero"/><path fill="#fd5ea6" d="M 100.871094 15.550781 C 100.871094 15.550781 102.570312 15.390625 103.484375 15.839844 C 104.398438 16.285156 104.347656 16.964844 104 17.320312 C 103.652344 17.671875 103.117188 17.917969 102.457031 17.34375 C 101.796875 16.765625 100.871094 15.550781 100.871094 15.550781 " fill-opacity="1" fill-rule="nonzero"/><path fill="#fd5ea6" d="M 103.171875 14.910156 C 103.171875 14.910156 105.789062 15.429688 106.59375 14.699219 C 107.398438 13.96875 107.144531 12.898438 105.921875 12.957031 C 104.695312 13.011719 103.996094 14.851562 102.710938 14.816406 C 101.425781 14.78125 103.171875 14.910156 103.171875 14.910156 " fill-opacity="1" fill-rule="nonzero"/><path fill="#fd5ea6" d="M 100.617188 14.078125 C 100.617188 14.078125 102.792969 14.617188 103.691406 13.660156 C 104.59375 12.703125 103.457031 11.828125 102.671875 12.269531 C 101.886719 12.710938 100.617188 14.078125 100.617188 14.078125 " fill-opacity="1" fill-rule="nonzero"/><path fill="#fd5ea6" d="M 97.695312 13.496094 C 97.695312 13.496094 99.644531 14.171875 100.738281 13.230469 C 101.832031 12.285156 100.792969 11.421875 100.132812 11.644531 C 99.472656 11.871094 98.355469 13.667969 97.695312 13.496094 " fill-opacity="1" fill-rule="nonzero"/><path fill="#fd5ea6" d="M 95.015625 12.878906 C 95.015625 12.878906 97.394531 13.570312 98.324219 12.457031 C 99.257812 11.347656 98.601562 10.839844 97.714844 10.804688 C 96.828125 10.769531 95.925781 13.09375 95.015625 12.878906 " fill-opacity="1" fill-rule="nonzero"/><path fill="#fd5ea6" d="M 92.230469 12.121094 C 92.230469 12.121094 94.527344 12.777344 95.605469 11.859375 C 96.691406 10.945312 96.441406 10.1875 95.796875 9.972656 C 94.269531 9.472656 93.320312 12.074219 92.230469 12.121094 " fill-opacity="1" fill-rule="nonzero"/><path fill="#fd5ea6" d="M 89.515625 11.523438 C 89.515625 11.523438 92.140625 12.179688 93.398438 10.605469 C 94.652344 9.03125 92.394531 8.457031 91.773438 9.066406 C 91.152344 9.671875 90.132812 11.3125 89.515625 11.523438 " fill-opacity="1" fill-rule="nonzero"/><path fill="#fd5ea6" d="M 86.8125 11.789062 C 86.8125 11.789062 90.074219 11.546875 90.683594 9.304688 C 91.191406 7.449219 88.941406 7.414062 88.527344 8.40625 C 88.171875 9.257812 87.609375 11.320312 86.8125 11.789062 " fill-opacity="1" fill-rule="nonzero"/><path fill="#fd5ea6" d="M 85.242188 12.242188 C 85.242188 12.242188 87.71875 10.433594 87.851562 8.558594 C 87.984375 6.679688 85.9375 6.46875 85.449219 8.121094 C 85.296875 8.644531 86.273438 10.421875 85.242188 12.242188 " fill-opacity="1" fill-rule="nonzero"/><path fill="#fd5ea6" d="M 82.875 13.6875 C 82.875 13.6875 84.296875 12.671875 84.179688 10 C 84.105469 8.339844 82.742188 8.335938 82.320312 8.628906 C 81.898438 8.917969 81.59375 10.125 82.296875 11.480469 C 82.996094 12.839844 83.03125 13.554688 82.875 13.6875 " fill-opacity="1" fill-rule="nonzero"/><path fill="#fd5ea6" d="M 82.09375 14.925781 C 82.09375 14.925781 82.589844 13.167969 81.292969 11.332031 C 79.992188 9.488281 78.496094 10.597656 78.800781 11.625 C 79.105469 12.652344 81.324219 13.410156 82.09375 14.925781 " fill-opacity="1" fill-rule="nonzero"/><path fill="#fd5ea6" d="M 81.5625 16.039062 C 81.5625 16.039062 80.800781 13.625 78.332031 13.230469 C 75.863281 12.832031 76.285156 15.339844 77.957031 15.40625 C 79.632812 15.46875 80.789062 15.417969 81.5625 16.039062 " fill-opacity="1" fill-rule="nonzero"/><path fill="#fd5ea6" d="M 81.550781 17.265625 C 81.550781 17.265625 80.292969 15.878906 77.941406 16.5625 C 75.589844 17.25 77.765625 18.820312 78.554688 18.449219 C 79.34375 18.078125 80.890625 17.089844 81.550781 17.265625 " fill-opacity="1" fill-rule="nonzero"/><path fill="#fd5ea6" d="M 87.792969 13.570312 C 87.792969 13.570312 90.308594 13.453125 91.605469 14.824219 C 92.898438 16.195312 91.230469 17.398438 90.140625 16.179688 C 89.046875 14.957031 88.707031 14.015625 87.792969 13.570312 " fill-opacity="1" fill-rule="nonzero"/><path fill="#fd5ea6" d="M 83.492188 15.023438 C 83.628906 14.84375 86.824219 10.597656 84.296875 7.78125 C 81.453125 4.621094 81.988281 2.921875 81.996094 2.90625 L 81.613281 2.765625 C 81.585938 2.84375 80.960938 4.683594 83.992188 8.054688 C 86.296875 10.617188 83.199219 14.734375 83.167969 14.773438 " fill-opacity="1" fill-rule="nonzero"/><path fill="#fd5ea6" d="M 88.699219 4.753906 C 89.328125 4.410156 90.117188 4.644531 90.457031 5.277344 C 90.796875 5.90625 90.5625 6.691406 89.933594 7.035156 C 89.304688 7.375 88.515625 7.140625 88.175781 6.511719 C 87.832031 5.878906 88.066406 5.09375 88.699219 4.753906 " fill-opacity="1" fill-rule="nonzero"/><g clip-path="url(#id7)"><path fill="#fd5ea6" d="M 79.410156 0.875 C 79.859375 0.632812 80.421875 0.796875 80.664062 1.25 C 80.910156 1.699219 80.742188 2.261719 80.289062 2.503906 C 79.839844 2.746094 79.277344 2.578125 79.035156 2.128906 C 78.789062 1.679688 78.957031 1.117188 79.410156 0.875 " fill-opacity="1" fill-rule="nonzero"/></g><path fill="#fd5ea6" d="M 46.082031 19.078125 C 46.128906 18.808594 46.226562 18.664062 46.351562 18.664062 C 46.480469 18.664062 46.574219 18.746094 46.78125 19.160156 L 51.121094 28.113281 L 55.445312 19.046875 C 55.570312 18.792969 55.652344 18.664062 55.792969 18.664062 C 55.9375 18.664062 56.03125 18.824219 56.078125 19.160156 L 57.527344 28.96875 C 57.667969 29.96875 57.828125 30.429688 58.304688 30.574219 C 58.765625 30.714844 59.082031 30.730469 59.289062 30.730469 C 59.433594 30.730469 59.542969 30.746094 59.542969 30.84375 C 59.542969 30.96875 59.355469 31.019531 59.132812 31.019531 C 58.734375 31.019531 56.539062 30.96875 55.90625 30.921875 C 55.539062 30.890625 55.445312 30.84375 55.445312 30.746094 C 55.445312 30.667969 55.507812 30.621094 55.617188 30.574219 C 55.714844 30.542969 55.761719 30.335938 55.699219 29.890625 L 54.746094 22.90625 L 54.679688 22.90625 L 51.214844 30.113281 C 50.851562 30.859375 50.769531 31.003906 50.628906 31.003906 C 50.484375 31.003906 50.324219 30.683594 50.070312 30.207031 C 49.691406 29.476562 48.433594 27.046875 48.242188 26.605469 C 48.101562 26.269531 47.148438 24.269531 46.589844 23.078125 L 46.527344 23.078125 L 45.699219 29.398438 C 45.667969 29.683594 45.652344 29.890625 45.652344 30.144531 C 45.652344 30.445312 45.859375 30.589844 46.128906 30.652344 C 46.417969 30.714844 46.636719 30.730469 46.796875 30.730469 C 46.925781 30.730469 47.035156 30.761719 47.035156 30.84375 C 47.035156 30.984375 46.894531 31.019531 46.65625 31.019531 C 45.988281 31.019531 45.273438 30.96875 44.984375 30.96875 C 44.683594 30.96875 43.921875 31.019531 43.414062 31.019531 C 43.253906 31.019531 43.125 30.984375 43.125 30.84375 C 43.125 30.761719 43.222656 30.730469 43.378906 30.730469 C 43.507812 30.730469 43.617188 30.730469 43.855469 30.683594 C 44.300781 30.589844 44.429688 29.96875 44.507812 29.429688 " fill-opacity="1" fill-rule="nonzero"/><path fill="#fd5ea6" d="M 61.421875 24.714844 C 61.421875 22.667969 61.421875 22.285156 61.40625 21.855469 C 61.371094 21.398438 61.246094 21.253906 60.800781 21.125 C 60.6875 21.09375 60.449219 21.078125 60.246094 21.078125 C 60.101562 21.078125 60.003906 21.03125 60.003906 20.9375 C 60.003906 20.839844 60.117188 20.808594 60.324219 20.808594 C 61.054688 20.808594 61.945312 20.839844 62.34375 20.839844 C 62.785156 20.839844 65.886719 20.855469 66.15625 20.839844 C 66.410156 20.824219 66.632812 20.777344 66.746094 20.761719 C 66.824219 20.746094 66.902344 20.699219 66.96875 20.699219 C 67.046875 20.699219 67.0625 20.761719 67.0625 20.824219 C 67.0625 20.921875 66.984375 21.078125 66.953125 21.699219 C 66.933594 21.839844 66.902344 22.429688 66.871094 22.585938 C 66.855469 22.652344 66.824219 22.808594 66.714844 22.808594 C 66.617188 22.808594 66.601562 22.746094 66.601562 22.636719 C 66.601562 22.539062 66.585938 22.300781 66.507812 22.144531 C 66.394531 21.90625 66.285156 21.714844 65.585938 21.652344 C 65.347656 21.617188 63.675781 21.585938 63.390625 21.585938 C 63.328125 21.585938 63.296875 21.636719 63.296875 21.714844 L 63.296875 25.046875 C 63.296875 25.128906 63.3125 25.191406 63.390625 25.191406 C 63.707031 25.191406 65.519531 25.191406 65.839844 25.160156 C 66.171875 25.128906 66.378906 25.097656 66.507812 24.953125 C 66.617188 24.859375 66.664062 24.777344 66.730469 24.777344 C 66.792969 24.777344 66.839844 24.84375 66.839844 24.921875 C 66.839844 25 66.808594 25.222656 66.730469 25.90625 C 66.695312 26.175781 66.664062 26.714844 66.664062 26.8125 C 66.664062 26.921875 66.648438 27.113281 66.523438 27.113281 C 66.425781 27.113281 66.394531 27.0625 66.394531 27 C 66.378906 26.859375 66.378906 26.683594 66.347656 26.507812 C 66.269531 26.238281 66.09375 26.03125 65.570312 25.984375 C 65.3125 25.953125 63.726562 25.921875 63.375 25.921875 C 63.3125 25.921875 63.296875 25.984375 63.296875 26.0625 L 63.296875 27.144531 C 63.296875 27.605469 63.28125 28.746094 63.296875 29.144531 C 63.328125 30.066406 63.757812 30.273438 65.1875 30.273438 C 65.550781 30.273438 66.140625 30.253906 66.507812 30.097656 C 66.855469 29.9375 67.015625 29.652344 67.109375 29.097656 C 67.140625 28.953125 67.175781 28.890625 67.269531 28.890625 C 67.378906 28.890625 67.398438 29.066406 67.398438 29.207031 C 67.398438 29.507812 67.285156 30.429688 67.207031 30.699219 C 67.109375 31.050781 66.984375 31.050781 66.457031 31.050781 C 65.410156 31.050781 64.566406 31.035156 63.882812 31.003906 C 63.199219 30.984375 62.675781 30.96875 62.261719 30.96875 C 62.105469 30.96875 61.800781 30.984375 61.46875 30.984375 C 61.132812 31.003906 60.785156 31.019531 60.5 31.019531 C 60.324219 31.019531 60.226562 30.96875 60.226562 30.875 C 60.226562 30.8125 60.277344 30.730469 60.449219 30.730469 C 60.65625 30.730469 60.816406 30.714844 60.945312 30.683594 C 61.230469 30.621094 61.308594 30.367188 61.355469 29.96875 C 61.421875 29.398438 61.421875 28.335938 61.421875 27.097656 " fill-opacity="1" fill-rule="nonzero"/><path fill="#fd5ea6" d="M 74.070312 25.351562 C 74.515625 26.015625 76.835938 29.683594 77.1875 30.113281 C 77.425781 30.414062 77.648438 30.558594 77.949219 30.652344 C 78.140625 30.714844 78.363281 30.730469 78.492188 30.730469 C 78.585938 30.730469 78.664062 30.796875 78.664062 30.875 C 78.664062 30.96875 78.554688 31.019531 78.394531 31.019531 L 77.980469 31.019531 C 77.648438 31.019531 76.535156 31.019531 75.390625 30.984375 C 75.027344 30.96875 74.898438 30.9375 74.898438 30.84375 C 74.898438 30.761719 74.960938 30.699219 75.089844 30.667969 C 75.152344 30.652344 75.25 30.558594 75.136719 30.382812 C 74.328125 29.066406 73.5625 27.792969 72.925781 26.761719 L 70.878906 29.9375 C 70.734375 30.160156 70.65625 30.367188 70.671875 30.507812 C 70.6875 30.636719 70.8125 30.714844 70.941406 30.714844 C 71.019531 30.714844 71.132812 30.730469 71.242188 30.730469 C 71.320312 30.730469 71.417969 30.8125 71.417969 30.890625 C 71.417969 30.984375 71.320312 31.019531 71.132812 31.019531 L 70.878906 31.019531 C 70.796875 31.019531 69.875 30.96875 69.527344 30.96875 C 69.257812 30.96875 68.574219 31.019531 68.351562 31.019531 L 68.113281 31.019531 C 67.96875 31.019531 67.90625 30.96875 67.90625 30.890625 C 67.90625 30.8125 67.984375 30.730469 68.09375 30.730469 C 68.191406 30.730469 68.398438 30.714844 68.605469 30.667969 C 69.015625 30.558594 69.238281 30.335938 69.71875 29.683594 L 72.449219 26 L 69.988281 22.160156 C 69.636719 21.617188 69.351562 21.332031 68.859375 21.175781 C 68.636719 21.109375 68.414062 21.078125 68.269531 21.078125 C 68.191406 21.078125 68.128906 21.015625 68.128906 20.921875 C 68.128906 20.839844 68.238281 20.808594 68.414062 20.808594 C 68.746094 20.808594 69.875 20.839844 70.542969 20.839844 C 70.734375 20.839844 71.59375 20.808594 72.117188 20.808594 C 72.308594 20.808594 72.402344 20.839844 72.402344 20.9375 C 72.402344 21.03125 72.308594 21.078125 72.179688 21.078125 C 72.101562 21.078125 71.957031 21.09375 71.847656 21.125 C 71.71875 21.160156 71.65625 21.238281 71.65625 21.316406 C 71.65625 21.398438 71.71875 21.570312 71.800781 21.714844 C 72.417969 22.792969 72.992188 23.730469 73.546875 24.652344 C 73.960938 24.046875 75.199219 22.222656 75.4375 21.839844 C 75.550781 21.652344 75.597656 21.460938 75.597656 21.347656 C 75.597656 21.253906 75.503906 21.160156 75.359375 21.125 C 75.214844 21.078125 75.027344 21.078125 74.914062 21.078125 C 74.835938 21.078125 74.738281 21.03125 74.738281 20.9375 C 74.738281 20.839844 74.835938 20.808594 75.042969 20.808594 C 75.582031 20.808594 76.234375 20.839844 76.503906 20.839844 C 76.773438 20.839844 77.347656 20.808594 77.871094 20.808594 C 78.03125 20.808594 78.125 20.839844 78.125 20.9375 C 78.125 21.015625 78.046875 21.078125 77.902344 21.078125 C 77.757812 21.078125 77.585938 21.109375 77.394531 21.160156 C 77.074219 21.238281 76.820312 21.601562 76.394531 22.191406 " fill-opacity="1" fill-rule="nonzero"/><path fill="#fd5ea6" d="M 80.238281 24.714844 C 80.238281 22.667969 80.238281 22.285156 80.222656 21.855469 C 80.191406 21.398438 80.046875 21.238281 79.746094 21.144531 C 79.585938 21.09375 79.414062 21.078125 79.238281 21.078125 C 79.09375 21.078125 79.015625 21.046875 79.015625 20.921875 C 79.015625 20.839844 79.125 20.808594 79.347656 20.808594 C 79.875 20.808594 80.828125 20.839844 81.222656 20.839844 C 81.574219 20.839844 82.480469 20.808594 83.019531 20.808594 C 83.195312 20.808594 83.304688 20.839844 83.304688 20.921875 C 83.304688 21.046875 83.226562 21.078125 83.082031 21.078125 C 82.941406 21.078125 82.828125 21.09375 82.671875 21.125 C 82.289062 21.191406 82.175781 21.378906 82.144531 21.855469 C 82.113281 22.285156 82.113281 22.667969 82.113281 24.714844 L 82.113281 27.097656 C 82.113281 28.398438 82.113281 29.476562 82.175781 30.050781 C 82.226562 30.414062 82.320312 30.621094 82.734375 30.683594 C 82.925781 30.714844 83.242188 30.730469 83.449219 30.730469 C 83.609375 30.730469 83.671875 30.8125 83.671875 30.875 C 83.671875 30.96875 83.558594 31.019531 83.402344 31.019531 C 82.480469 31.019531 81.527344 30.96875 81.144531 30.96875 C 80.828125 30.96875 79.875 31.019531 79.316406 31.019531 C 79.140625 31.019531 79.046875 30.96875 79.046875 30.875 C 79.046875 30.8125 79.09375 30.730469 79.269531 30.730469 C 79.476562 30.730469 79.636719 30.714844 79.761719 30.683594 C 80.046875 30.621094 80.128906 30.429688 80.175781 30.035156 C 80.238281 29.476562 80.238281 28.398438 80.238281 27.097656 " fill-opacity="1" fill-rule="nonzero"/><path fill="#fd5ea6" d="M 86.4375 29.730469 C 85.054688 28.574219 84.6875 27.046875 84.6875 25.746094 C 84.6875 24.824219 84.992188 23.238281 86.324219 22.046875 C 87.34375 21.160156 88.679688 20.617188 90.761719 20.617188 C 91.636719 20.617188 92.160156 20.683594 92.796875 20.761719 C 93.320312 20.839844 93.78125 20.9375 94.195312 20.984375 C 94.351562 21 94.402344 21.0625 94.402344 21.140625 C 94.402344 21.253906 94.367188 21.414062 94.335938 21.890625 C 94.304688 22.332031 94.304688 23.078125 94.289062 23.351562 C 94.273438 23.539062 94.226562 23.683594 94.097656 23.683594 C 93.988281 23.683594 93.957031 23.570312 93.957031 23.398438 C 93.941406 22.96875 93.765625 22.492188 93.414062 22.144531 C 92.9375 21.683594 92 21.347656 90.710938 21.347656 C 89.488281 21.347656 88.710938 21.570312 88.074219 22.109375 C 87.042969 23 86.785156 24.300781 86.785156 25.621094 C 86.785156 28.828125 89.265625 30.351562 91.140625 30.351562 C 92.382812 30.351562 93.066406 30.253906 93.621094 29.636719 C 93.859375 29.367188 94.050781 28.984375 94.097656 28.730469 C 94.128906 28.523438 94.164062 28.460938 94.273438 28.460938 C 94.367188 28.460938 94.433594 28.589844 94.433594 28.699219 C 94.433594 28.859375 94.273438 30.035156 94.128906 30.492188 C 94.066406 30.730469 94.003906 30.796875 93.765625 30.890625 C 93.207031 31.113281 92.144531 31.191406 91.238281 31.191406 C 89.328125 31.191406 87.707031 30.796875 86.4375 29.730469 " fill-opacity="1" fill-rule="nonzero"/><path fill="#fd5ea6" d="M 105.066406 26.160156 C 105.066406 23.175781 103.269531 21.332031 101.011719 21.332031 C 99.453125 21.332031 97.625 22.160156 97.625 25.492188 C 97.625 28.269531 99.214844 30.460938 101.855469 30.460938 C 102.839844 30.460938 105.066406 30 105.066406 26.160156 M 95.5625 25.90625 C 95.5625 23.601562 97.183594 20.617188 101.425781 20.617188 C 104.953125 20.617188 107.148438 22.570312 107.148438 25.667969 C 107.148438 28.761719 104.890625 31.191406 101.28125 31.191406 C 97.214844 31.191406 95.5625 28.304688 95.5625 25.90625 " fill-opacity="1" fill-rule="nonzero"/><path fill="#fd5ea6" d="M 76.363281 44.609375 C 76.363281 44.609375 76.082031 47.527344 77.347656 49.300781 C 78.121094 50.386719 79.113281 50.238281 79.394531 49.582031 C 79.8125 48.613281 77.089844 47.671875 76.382812 44.617188 " fill-opacity="1" fill-rule="nonzero"/><path fill="#fd5ea6" d="M 77.464844 44.390625 C 77.464844 44.390625 77.671875 46.910156 79.640625 47.835938 C 80.648438 48.3125 81.464844 47.875 81.394531 47.28125 C 81.195312 45.570312 78.929688 47.183594 77.484375 44.394531 " fill-opacity="1" fill-rule="nonzero"/><path fill="#fd5ea6" d="M 72.632812 44.390625 C 72.632812 44.390625 72.425781 46.910156 70.460938 47.835938 C 69.449219 48.3125 68.636719 47.875 68.703125 47.28125 C 68.902344 45.570312 71.171875 47.183594 72.617188 44.394531 " fill-opacity="1" fill-rule="nonzero"/><path fill="#fd5ea6" d="M 74.074219 44.609375 C 74.074219 44.609375 74.359375 47.527344 73.09375 49.300781 C 72.320312 50.386719 71.328125 50.238281 71.042969 49.582031 C 70.628906 48.613281 73.347656 47.671875 74.058594 44.617188 " fill-opacity="1" fill-rule="nonzero"/><g clip-path="url(#id8)"><path fill="#fd5ea6" d="M 75.125 44.699219 C 75.125 44.699219 75.476562 47.046875 76.207031 49 C 76.773438 50.511719 75.796875 51.246094 75.203125 51.265625 C 74.609375 51.28125 73.8125 50.457031 74.167969 49.191406 C 74.683594 47.339844 75.125 44.699219 75.125 44.699219 " fill-opacity="1" fill-rule="nonzero"/></g><path fill="#fd5ea6" d="M 54.425781 40.566406 C 53.167969 39.464844 52.835938 38.03125 52.835938 36.789062 C 52.835938 35.921875 53.105469 34.410156 54.335938 33.285156 C 55.257812 32.4375 56.472656 31.925781 58.382812 31.925781 C 59.179688 31.925781 59.652344 31.976562 60.242188 32.054688 C 60.726562 32.121094 61.136719 32.234375 61.523438 32.273438 C 61.664062 32.285156 61.714844 32.351562 61.714844 32.425781 C 61.714844 32.527344 61.675781 32.683594 61.652344 33.128906 C 61.625 33.554688 61.636719 34.257812 61.613281 34.511719 C 61.597656 34.703125 61.574219 34.808594 61.457031 34.808594 C 61.355469 34.808594 61.332031 34.703125 61.332031 34.527344 C 61.316406 34.128906 61.152344 33.679688 60.832031 33.347656 C 60.40625 32.898438 59.40625 32.554688 58.230469 32.554688 C 57.113281 32.554688 56.382812 32.835938 55.820312 33.347656 C 54.886719 34.207031 54.640625 35.421875 54.640625 36.664062 C 54.640625 39.710938 56.960938 41.21875 58.679688 41.21875 C 59.816406 41.21875 60.511719 41.089844 61.023438 40.503906 C 61.242188 40.257812 61.40625 39.886719 61.457031 39.65625 C 61.496094 39.453125 61.523438 39.402344 61.625 39.402344 C 61.714844 39.402344 61.742188 39.492188 61.742188 39.59375 C 61.742188 39.746094 61.585938 40.863281 61.457031 41.296875 C 61.394531 41.515625 61.34375 41.578125 61.125 41.667969 C 60.613281 41.871094 59.640625 41.960938 58.820312 41.960938 C 57.0625 41.960938 55.589844 41.578125 54.425781 40.566406 " fill-opacity="1" fill-rule="nonzero"/><path fill="#fd5ea6" d="M 70.875 37.867188 C 70.875 35.460938 69.429688 33.976562 67.609375 33.976562 C 66.351562 33.976562 64.878906 34.640625 64.878906 37.328125 C 64.878906 39.570312 66.160156 41.335938 68.289062 41.335938 C 69.082031 41.335938 70.875 40.964844 70.875 37.867188 M 63.214844 37.660156 C 63.214844 35.804688 64.519531 33.398438 67.941406 33.398438 C 70.785156 33.398438 72.554688 34.972656 72.554688 37.46875 C 72.554688 39.964844 70.734375 41.921875 67.828125 41.921875 C 64.546875 41.921875 63.214844 39.59375 63.214844 37.660156 " fill-opacity="1" fill-rule="nonzero"/><path fill="#fd5ea6" d="M 75.4375 40.746094 C 74.324219 39.8125 74.027344 38.582031 74.027344 37.535156 C 74.027344 36.789062 74.269531 35.511719 75.347656 34.550781 C 76.167969 33.835938 77.242188 33.398438 78.921875 33.398438 C 79.628906 33.398438 80.050781 33.449219 80.5625 33.515625 C 80.984375 33.578125 81.355469 33.65625 81.691406 33.695312 C 81.820312 33.707031 81.855469 33.757812 81.855469 33.820312 C 81.855469 33.910156 81.832031 34.039062 81.804688 34.421875 C 81.78125 34.78125 81.78125 35.382812 81.765625 35.601562 C 81.753906 35.753906 81.714844 35.871094 81.613281 35.871094 C 81.523438 35.871094 81.496094 35.78125 81.496094 35.640625 C 81.484375 35.292969 81.34375 34.910156 81.0625 34.628906 C 80.675781 34.257812 79.921875 33.988281 78.882812 33.988281 C 77.898438 33.988281 77.269531 34.167969 76.757812 34.601562 C 75.925781 35.320312 75.71875 36.367188 75.71875 37.429688 C 75.71875 40.015625 77.71875 41.246094 79.230469 41.246094 C 80.230469 41.246094 80.78125 41.167969 81.230469 40.667969 C 81.421875 40.453125 81.574219 40.144531 81.613281 39.941406 C 81.636719 39.773438 81.664062 39.722656 81.753906 39.722656 C 81.832031 39.722656 81.882812 39.824219 81.882812 39.914062 C 81.882812 40.042969 81.753906 40.988281 81.636719 41.359375 C 81.585938 41.550781 81.535156 41.605469 81.34375 41.679688 C 80.894531 41.859375 80.039062 41.921875 79.304688 41.921875 C 77.769531 41.921875 76.460938 41.605469 75.4375 40.746094 " fill-opacity="1" fill-rule="nonzero"/><path fill="#fd5ea6" d="M 84.507812 36.703125 C 84.507812 35.050781 84.507812 34.742188 84.496094 34.398438 C 84.46875 34.027344 84.355469 33.898438 84.109375 33.820312 C 83.984375 33.785156 83.84375 33.769531 83.703125 33.769531 C 83.585938 33.769531 83.523438 33.746094 83.523438 33.640625 C 83.523438 33.578125 83.609375 33.554688 83.789062 33.554688 C 84.214844 33.554688 84.980469 33.578125 85.300781 33.578125 C 85.585938 33.578125 86.316406 33.554688 86.75 33.554688 C 86.890625 33.554688 86.980469 33.578125 86.980469 33.640625 C 86.980469 33.746094 86.917969 33.769531 86.800781 33.769531 C 86.6875 33.769531 86.597656 33.785156 86.46875 33.808594 C 86.160156 33.859375 86.070312 34.015625 86.046875 34.398438 C 86.019531 34.742188 86.019531 35.050781 86.019531 36.703125 L 86.019531 38.621094 C 86.019531 39.671875 86.019531 40.542969 86.070312 41.003906 C 86.109375 41.296875 86.1875 41.464844 86.519531 41.515625 C 86.671875 41.539062 86.929688 41.550781 87.097656 41.550781 C 87.226562 41.550781 87.277344 41.617188 87.277344 41.667969 C 87.277344 41.746094 87.1875 41.78125 87.058594 41.78125 C 86.316406 41.78125 85.546875 41.746094 85.238281 41.746094 C 84.980469 41.746094 84.214844 41.78125 83.765625 41.78125 C 83.625 41.78125 83.546875 41.746094 83.546875 41.667969 C 83.546875 41.617188 83.585938 41.550781 83.726562 41.550781 C 83.894531 41.550781 84.019531 41.539062 84.125 41.515625 C 84.355469 41.464844 84.417969 41.308594 84.457031 40.988281 C 84.507812 40.542969 84.507812 39.671875 84.507812 38.621094 " fill-opacity="1" fill-rule="nonzero"/><path fill="#fd5ea6" d="M 90.644531 40.296875 C 90.671875 41.144531 90.8125 41.398438 91.03125 41.476562 C 91.222656 41.539062 91.441406 41.550781 91.621094 41.550781 C 91.746094 41.550781 91.8125 41.605469 91.8125 41.667969 C 91.8125 41.757812 91.710938 41.78125 91.554688 41.78125 C 90.824219 41.78125 90.300781 41.746094 90.09375 41.746094 C 89.992188 41.746094 89.453125 41.78125 88.878906 41.78125 C 88.722656 41.78125 88.621094 41.769531 88.621094 41.667969 C 88.621094 41.605469 88.699219 41.550781 88.800781 41.550781 C 88.953125 41.550781 89.160156 41.539062 89.3125 41.5 C 89.609375 41.425781 89.644531 41.128906 89.660156 40.183594 L 89.761719 33.730469 C 89.761719 33.515625 89.839844 33.359375 89.953125 33.359375 C 90.09375 33.359375 90.25 33.527344 90.441406 33.71875 C 90.582031 33.859375 92.273438 35.585938 93.914062 37.1875 C 94.683594 37.941406 96.179688 39.480469 96.347656 39.632812 L 96.398438 39.632812 L 96.285156 34.792969 C 96.269531 34.128906 96.167969 33.9375 95.898438 33.835938 C 95.734375 33.769531 95.464844 33.769531 95.308594 33.769531 C 95.167969 33.769531 95.128906 33.71875 95.128906 33.65625 C 95.128906 33.566406 95.246094 33.554688 95.414062 33.554688 C 96 33.554688 96.605469 33.578125 96.847656 33.578125 C 96.976562 33.578125 97.398438 33.554688 97.949219 33.554688 C 98.101562 33.554688 98.207031 33.566406 98.207031 33.65625 C 98.207031 33.71875 98.140625 33.769531 98.011719 33.769531 C 97.898438 33.769531 97.808594 33.769531 97.667969 33.808594 C 97.359375 33.898438 97.269531 34.089844 97.257812 34.703125 L 97.128906 41.566406 C 97.128906 41.808594 97.039062 41.910156 96.949219 41.910156 C 96.757812 41.910156 96.605469 41.796875 96.488281 41.679688 C 95.785156 41.027344 94.375 39.683594 93.195312 38.542969 C 91.964844 37.367188 90.773438 36.046875 90.554688 35.855469 L 90.515625 35.855469 " fill-opacity="1" fill-rule="nonzero"/><path fill="#fd5ea6" d="M 103.832031 38.429688 C 103.882812 38.429688 103.894531 38.402344 103.882812 38.367188 L 102.816406 35.640625 C 102.804688 35.601562 102.792969 35.535156 102.765625 35.535156 C 102.726562 35.535156 102.714844 35.601562 102.703125 35.640625 L 101.613281 38.351562 C 101.589844 38.402344 101.613281 38.429688 101.652344 38.429688 Z M 101.421875 39.03125 C 101.359375 39.03125 101.34375 39.042969 101.320312 39.109375 L 100.714844 40.578125 C 100.601562 40.847656 100.550781 41.117188 100.550781 41.246094 C 100.550781 41.4375 100.652344 41.550781 101 41.550781 L 101.164062 41.550781 C 101.304688 41.550781 101.332031 41.605469 101.332031 41.667969 C 101.332031 41.757812 101.265625 41.78125 101.152344 41.78125 C 100.78125 41.78125 100.253906 41.746094 99.894531 41.746094 C 99.78125 41.746094 99.179688 41.78125 98.589844 41.78125 C 98.449219 41.78125 98.382812 41.757812 98.382812 41.667969 C 98.382812 41.605469 98.421875 41.550781 98.511719 41.550781 C 98.617188 41.550781 98.742188 41.539062 98.847656 41.539062 C 99.359375 41.464844 99.550781 41.128906 99.78125 40.578125 L 102.726562 33.78125 C 102.855469 33.476562 102.945312 33.347656 103.0625 33.347656 C 103.226562 33.347656 103.28125 33.449219 103.394531 33.695312 C 103.664062 34.296875 105.546875 38.699219 106.265625 40.347656 C 106.699219 41.335938 107.019531 41.476562 107.226562 41.515625 C 107.394531 41.539062 107.519531 41.550781 107.648438 41.550781 C 107.75 41.550781 107.800781 41.589844 107.800781 41.667969 C 107.800781 41.757812 107.738281 41.78125 107.316406 41.78125 C 106.917969 41.78125 106.097656 41.78125 105.152344 41.757812 C 104.945312 41.746094 104.816406 41.746094 104.816406 41.667969 C 104.816406 41.605469 104.84375 41.566406 104.957031 41.550781 C 105.035156 41.539062 105.113281 41.4375 105.0625 41.308594 L 104.1875 39.109375 C 104.164062 39.042969 104.125 39.03125 104.074219 39.03125 " fill-opacity="1" fill-rule="nonzero"/><path fill="#fd5ea6" d="M 43.933594 33.949219 C 43.933594 33.117188 43.933594 32.964844 43.921875 32.796875 C 43.910156 32.613281 43.878906 32.523438 43.695312 32.5 C 43.652344 32.492188 43.554688 32.488281 43.503906 32.488281 C 43.488281 32.488281 43.460938 32.460938 43.460938 32.441406 C 43.460938 32.410156 43.488281 32.398438 43.550781 32.398438 C 43.800781 32.398438 44.164062 32.410156 44.195312 32.410156 C 44.230469 32.410156 45.394531 32.417969 45.519531 32.410156 C 45.628906 32.402344 45.730469 32.386719 45.773438 32.378906 C 45.796875 32.371094 45.824219 32.355469 45.847656 32.355469 C 45.867188 32.355469 45.875 32.378906 45.875 32.402344 C 45.875 32.441406 45.84375 32.503906 45.832031 32.65625 C 45.824219 32.707031 45.8125 32.945312 45.796875 33.011719 C 45.792969 33.035156 45.773438 33.066406 45.75 33.066406 C 45.714844 33.066406 45.703125 33.042969 45.703125 32.996094 C 45.703125 32.960938 45.699219 32.871094 45.671875 32.808594 C 45.632812 32.71875 45.578125 32.683594 45.273438 32.644531 C 45.179688 32.632812 44.535156 32.625 44.472656 32.625 C 44.445312 32.625 44.441406 32.644531 44.441406 32.683594 L 44.441406 34.140625 C 44.441406 34.175781 44.441406 34.195312 44.472656 34.195312 C 44.542969 34.195312 45.273438 34.195312 45.402344 34.183594 C 45.535156 34.171875 45.613281 34.164062 45.671875 34.109375 C 45.710938 34.070312 45.734375 34.039062 45.753906 34.039062 C 45.773438 34.039062 45.785156 34.050781 45.785156 34.082031 C 45.785156 34.113281 45.753906 34.203125 45.742188 34.378906 C 45.730469 34.488281 45.714844 34.6875 45.714844 34.726562 C 45.714844 34.769531 45.703125 34.828125 45.664062 34.828125 C 45.640625 34.828125 45.628906 34.808594 45.628906 34.777344 C 45.628906 34.726562 45.628906 34.667969 45.601562 34.601562 C 45.582031 34.523438 45.535156 34.460938 45.320312 34.4375 C 45.167969 34.417969 44.574219 34.410156 44.476562 34.410156 C 44.445312 34.410156 44.441406 34.429688 44.441406 34.449219 L 44.441406 34.898438 C 44.441406 35.078125 44.433594 35.703125 44.441406 35.8125 C 44.453125 36.171875 44.554688 36.242188 45.105469 36.242188 C 45.25 36.242188 45.515625 36.242188 45.660156 36.183594 C 45.804688 36.121094 45.882812 36.027344 45.914062 35.8125 C 45.925781 35.75 45.9375 35.730469 45.96875 35.730469 C 46 35.730469 46.007812 35.773438 46.007812 35.8125 C 46.007812 35.847656 45.960938 36.214844 45.929688 36.328125 C 45.894531 36.46875 45.835938 36.46875 45.621094 36.46875 C 45.203125 36.46875 44.882812 36.453125 44.65625 36.449219 C 44.421875 36.4375 44.277344 36.4375 44.195312 36.4375 C 44.179688 36.4375 44.074219 36.4375 43.953125 36.441406 C 43.847656 36.449219 43.71875 36.453125 43.632812 36.453125 C 43.574219 36.453125 43.542969 36.441406 43.542969 36.410156 C 43.542969 36.390625 43.554688 36.367188 43.589844 36.367188 C 43.636719 36.367188 43.707031 36.347656 43.757812 36.339844 C 43.867188 36.324219 43.878906 36.214844 43.902344 36.058594 C 43.933594 35.835938 43.933594 35.414062 43.933594 34.898438 " fill-opacity="1" fill-rule="nonzero"/><path fill="#fd5ea6" d="M 47.648438 35.722656 C 47.664062 36.164062 47.714844 36.296875 47.863281 36.335938 C 47.964844 36.359375 48.09375 36.367188 48.140625 36.367188 C 48.167969 36.367188 48.1875 36.386719 48.1875 36.410156 C 48.1875 36.441406 48.148438 36.453125 48.085938 36.453125 C 47.769531 36.453125 47.546875 36.4375 47.496094 36.4375 C 47.449219 36.4375 47.214844 36.453125 46.960938 36.453125 C 46.90625 36.453125 46.871094 36.449219 46.871094 36.410156 C 46.871094 36.386719 46.890625 36.367188 46.917969 36.367188 C 46.960938 36.367188 47.0625 36.359375 47.144531 36.335938 C 47.285156 36.296875 47.300781 36.152344 47.300781 35.667969 L 47.300781 32.59375 C 47.300781 32.378906 47.332031 32.324219 47.378906 32.324219 C 47.441406 32.324219 47.535156 32.429688 47.59375 32.488281 C 47.679688 32.574219 48.488281 33.433594 49.347656 34.316406 C 49.898438 34.882812 50.492188 35.519531 50.664062 35.699219 L 50.605469 33.011719 C 50.597656 32.664062 50.566406 32.542969 50.398438 32.511719 C 50.296875 32.492188 50.171875 32.488281 50.125 32.488281 C 50.089844 32.488281 50.082031 32.453125 50.082031 32.4375 C 50.082031 32.402344 50.125 32.398438 50.1875 32.398438 C 50.441406 32.398438 50.707031 32.410156 50.769531 32.410156 C 50.832031 32.410156 51.015625 32.398438 51.242188 32.398438 C 51.300781 32.398438 51.34375 32.402344 51.34375 32.4375 C 51.34375 32.453125 51.320312 32.488281 51.28125 32.488281 C 51.257812 32.488281 51.210938 32.488281 51.148438 32.5 C 50.964844 32.535156 50.953125 32.644531 50.953125 32.964844 L 50.941406 36.109375 C 50.941406 36.460938 50.933594 36.492188 50.898438 36.492188 C 50.839844 36.492188 50.78125 36.449219 50.472656 36.164062 C 50.417969 36.113281 49.613281 35.324219 49.027344 34.714844 C 48.382812 34.039062 47.757812 33.382812 47.585938 33.191406 " fill-opacity="1" fill-rule="nonzero"/><path fill="#fd5ea6" d="M 48.320312 41.027344 C 48.339844 41.214844 48.378906 41.503906 48.605469 41.582031 C 48.765625 41.632812 48.910156 41.632812 48.964844 41.632812 C 48.992188 41.632812 49.011719 41.644531 49.011719 41.667969 C 49.011719 41.699219 48.960938 41.71875 48.898438 41.71875 C 48.769531 41.71875 48.152344 41.714844 47.949219 41.695312 C 47.816406 41.683594 47.792969 41.664062 47.792969 41.636719 C 47.792969 41.617188 47.804688 41.601562 47.828125 41.59375 C 47.859375 41.585938 47.867188 41.503906 47.855469 41.402344 L 47.589844 38.679688 L 47.578125 38.679688 L 46.238281 41.417969 C 46.125 41.648438 46.09375 41.699219 46.042969 41.699219 C 45.992188 41.699219 45.960938 41.648438 45.851562 41.453125 C 45.707031 41.191406 45.339844 40.503906 45.203125 40.210938 C 45.039062 39.871094 44.589844 38.96875 44.492188 38.75 L 44.46875 38.75 L 44.253906 41.171875 C 44.25 41.253906 44.25 41.355469 44.25 41.441406 C 44.25 41.523438 44.296875 41.574219 44.378906 41.59375 C 44.476562 41.617188 44.558594 41.625 44.59375 41.625 C 44.613281 41.625 44.640625 41.644531 44.640625 41.664062 C 44.640625 41.699219 44.601562 41.714844 44.539062 41.714844 C 44.328125 41.714844 44.066406 41.695312 44.019531 41.695312 C 43.96875 41.695312 43.703125 41.714844 43.554688 41.714844 C 43.496094 41.714844 43.457031 41.699219 43.457031 41.664062 C 43.457031 41.644531 43.484375 41.625 43.515625 41.625 C 43.558594 41.625 43.597656 41.617188 43.679688 41.605469 C 43.863281 41.574219 43.867188 41.378906 43.894531 41.175781 L 44.296875 37.675781 C 44.304688 37.617188 44.328125 37.582031 44.363281 37.582031 C 44.398438 37.582031 44.445312 37.601562 44.476562 37.664062 L 46.15625 40.996094 L 47.773438 37.667969 C 47.796875 37.617188 47.824219 37.582031 47.859375 37.582031 C 47.898438 37.582031 47.929688 37.625 47.941406 37.726562 " fill-opacity="1" fill-rule="nonzero"/><path fill="#fd5ea6" d="M 50.5 40.15625 C 50.5 40.671875 50.5 41.09375 50.527344 41.316406 C 50.546875 41.472656 50.566406 41.574219 50.730469 41.601562 C 50.8125 41.613281 50.933594 41.625 50.980469 41.625 C 51.011719 41.625 51.027344 41.648438 51.027344 41.667969 C 51.027344 41.695312 51 41.714844 50.9375 41.714844 C 50.628906 41.714844 50.269531 41.695312 50.242188 41.695312 C 50.210938 41.695312 49.863281 41.714844 49.691406 41.714844 C 49.636719 41.714844 49.605469 41.699219 49.605469 41.667969 C 49.605469 41.648438 49.617188 41.625 49.648438 41.625 C 49.699219 41.625 49.769531 41.613281 49.820312 41.601562 C 49.925781 41.574219 49.945312 41.472656 49.964844 41.316406 C 49.988281 41.09375 49.996094 40.671875 49.996094 40.15625 L 49.996094 39.207031 C 49.996094 38.375 49.996094 38.222656 49.984375 38.054688 C 49.972656 37.871094 49.925781 37.789062 49.808594 37.765625 C 49.742188 37.75 49.675781 37.746094 49.636719 37.746094 C 49.613281 37.746094 49.59375 37.71875 49.59375 37.699219 C 49.59375 37.667969 49.617188 37.65625 49.679688 37.65625 C 49.863281 37.65625 50.210938 37.667969 50.242188 37.667969 C 50.269531 37.667969 50.628906 37.65625 50.796875 37.65625 C 50.863281 37.65625 50.886719 37.667969 50.886719 37.699219 C 50.886719 37.71875 50.863281 37.746094 50.84375 37.746094 C 50.804688 37.746094 50.765625 37.746094 50.703125 37.757812 C 50.550781 37.789062 50.519531 37.863281 50.507812 38.054688 C 50.5 38.222656 50.5 38.375 50.5 39.207031 " fill-opacity="1" fill-rule="nonzero"/><path fill="#fd5ea6" d="M 83.953125 46.886719 C 83.828125 46.886719 83.730469 46.820312 83.671875 46.730469 C 83.332031 47.261719 83.015625 47.773438 83.007812 47.785156 C 82.992188 47.804688 82.960938 47.824219 82.929688 47.824219 C 82.902344 47.824219 82.875 47.84375 82.84375 47.84375 C 82.828125 47.84375 82.816406 47.839844 82.800781 47.839844 L 82.773438 47.839844 C 82.691406 47.839844 82.667969 47.804688 82.667969 47.773438 C 82.667969 47.765625 82.671875 47.753906 82.671875 47.742188 C 82.800781 47.414062 83.910156 45.804688 84.039062 45.664062 C 84.085938 45.617188 84.128906 45.609375 84.242188 45.609375 L 84.328125 45.609375 C 84.34375 45.609375 84.351562 45.636719 84.351562 45.660156 C 84.351562 45.675781 84.347656 45.6875 84.34375 45.695312 C 84.214844 45.875 84.003906 46.203125 83.785156 46.546875 C 83.808594 46.59375 83.863281 46.589844 83.953125 46.589844 C 84.40625 46.589844 84.964844 46.113281 84.964844 45.902344 C 84.964844 45.65625 84.65625 45.566406 84.324219 45.566406 C 83.972656 45.566406 83.390625 45.804688 83.191406 45.957031 C 83.152344 45.984375 83.132812 46.019531 83.132812 46.046875 C 83.132812 46.078125 83.164062 46.101562 83.210938 46.101562 C 83.234375 46.101562 83.261719 46.09375 83.296875 46.082031 C 83.304688 46.082031 83.308594 46.101562 83.308594 46.117188 C 83.308594 46.136719 83.304688 46.15625 83.300781 46.160156 C 83.269531 46.183594 83.136719 46.289062 82.984375 46.289062 C 82.824219 46.289062 82.757812 46.175781 82.757812 46.039062 C 82.757812 45.734375 83.449219 45.3125 84.386719 45.3125 C 85.011719 45.3125 85.351562 45.570312 85.351562 45.808594 C 85.351562 46.347656 84.546875 46.886719 83.953125 46.886719 " fill-opacity="1" fill-rule="nonzero"/><path fill="#fd5ea6" d="M 85.746094 46.734375 C 85.710938 46.734375 85.6875 46.714844 85.6875 46.644531 C 85.523438 46.699219 85.324219 46.839844 85.160156 47.046875 C 85.011719 47.242188 84.941406 47.421875 84.9375 47.527344 C 84.9375 47.589844 84.960938 47.625 85.011719 47.625 C 85.089844 47.625 85.296875 47.523438 85.511719 47.253906 C 85.703125 47.011719 85.785156 46.839844 85.785156 46.769531 C 85.785156 46.746094 85.773438 46.734375 85.757812 46.734375 Z M 84.960938 47.882812 C 84.789062 47.882812 84.671875 47.75 84.671875 47.59375 C 84.671875 46.953125 85.371094 46.417969 85.695312 46.417969 C 85.800781 46.417969 85.859375 46.472656 85.859375 46.492188 L 85.859375 46.503906 C 85.882812 46.5 85.90625 46.5 85.917969 46.5 C 86 46.5 86.101562 46.554688 86.101562 46.683594 C 86.101562 47.039062 85.464844 47.882812 84.960938 47.882812 " fill-opacity="1" fill-rule="nonzero"/><path fill="#fd5ea6" d="M 87.25 47.066406 C 87.226562 47.097656 87.195312 47.121094 87.148438 47.121094 C 87.074219 47.121094 87.035156 47.054688 87.035156 46.988281 C 87.035156 46.886719 87.101562 46.785156 87.164062 46.710938 L 87.160156 46.710938 C 87.070312 46.714844 86.59375 47.214844 86.507812 47.3125 C 86.375 47.457031 86.25 47.609375 86.136719 47.765625 C 86.113281 47.796875 86.070312 47.839844 86.027344 47.839844 C 86 47.839844 85.882812 47.796875 85.867188 47.777344 C 85.855469 47.773438 85.855469 47.761719 85.855469 47.75 C 85.855469 47.691406 85.921875 47.601562 85.960938 47.535156 C 86.109375 47.273438 86.265625 47.015625 86.417969 46.757812 C 86.472656 46.671875 86.511719 46.585938 86.574219 46.507812 C 86.632812 46.433594 86.746094 46.410156 86.839844 46.410156 C 86.875 46.410156 86.882812 46.445312 86.882812 46.476562 C 86.882812 46.558594 86.707031 46.800781 86.65625 46.882812 C 86.820312 46.695312 87.09375 46.410156 87.363281 46.410156 C 87.457031 46.410156 87.527344 46.472656 87.527344 46.570312 C 87.527344 46.667969 87.316406 46.972656 87.25 47.066406 " fill-opacity="1" fill-rule="nonzero"/><path fill="#fd5ea6" d="M 90.164062 47.5 C 90.296875 47.46875 90.5 47.292969 90.714844 47.058594 C 90.734375 47.03125 90.75 47.003906 90.765625 47.003906 C 90.792969 47.003906 90.804688 47.132812 90.8125 47.191406 C 90.8125 47.210938 90.824219 47.230469 90.824219 47.257812 C 90.824219 47.28125 90.816406 47.3125 90.78125 47.355469 C 90.648438 47.53125 90.210938 47.898438 90.027344 47.898438 C 89.867188 47.898438 89.777344 47.777344 89.777344 47.664062 C 89.777344 47.652344 89.777344 47.640625 89.78125 47.628906 C 89.824219 47.382812 90.539062 46.367188 90.878906 45.894531 C 90.398438 46.390625 89.273438 47.589844 89.027344 47.789062 C 89.007812 47.808594 88.984375 47.8125 88.953125 47.8125 C 88.867188 47.8125 88.757812 47.742188 88.757812 47.664062 L 88.757812 47.65625 C 88.769531 47.554688 89.359375 46.410156 89.652344 45.90625 C 89.289062 46.304688 88.464844 47.320312 88.039062 48.167969 C 88.019531 48.214844 87.992188 48.226562 87.960938 48.226562 C 87.933594 48.226562 87.902344 48.21875 87.863281 48.207031 C 87.773438 48.183594 87.707031 48.132812 87.707031 48.058594 C 87.707031 47.890625 89.296875 45.671875 89.816406 45.324219 C 89.863281 45.292969 89.894531 45.285156 89.917969 45.285156 C 89.957031 45.285156 89.972656 45.308594 89.988281 45.308594 C 89.992188 45.308594 89.996094 45.304688 90 45.300781 C 90.015625 45.28125 90.050781 45.273438 90.089844 45.273438 C 90.175781 45.273438 90.285156 45.3125 90.285156 45.359375 C 90.285156 45.363281 90.285156 45.367188 90.28125 45.375 C 90.246094 45.46875 89.644531 46.492188 89.320312 47.125 C 89.671875 46.703125 90.816406 45.472656 91.191406 45.25 C 91.203125 45.242188 91.21875 45.238281 91.238281 45.238281 C 91.269531 45.238281 91.308594 45.246094 91.363281 45.261719 C 91.425781 45.28125 91.523438 45.28125 91.550781 45.289062 C 91.585938 45.296875 91.617188 45.320312 91.617188 45.351562 C 91.617188 45.363281 91.613281 45.371094 91.609375 45.382812 C 91.378906 45.6875 90.367188 47.046875 90.164062 47.5 " fill-opacity="1" fill-rule="nonzero"/><path fill="#fd5ea6" d="M 91.824219 46.816406 C 91.769531 46.816406 91.761719 46.789062 91.761719 46.738281 C 91.761719 46.71875 91.765625 46.707031 91.769531 46.691406 C 91.71875 46.710938 91.671875 46.734375 91.625 46.761719 C 91.566406 46.792969 91.328125 46.949219 91.328125 47.015625 C 91.328125 47.027344 91.355469 47.027344 91.359375 47.027344 C 91.457031 47.027344 91.535156 46.972656 91.625 46.972656 C 91.636719 46.972656 91.648438 46.972656 91.660156 46.972656 C 91.6875 46.988281 91.734375 47.0625 91.734375 47.089844 C 91.734375 47.121094 91.695312 47.148438 91.671875 47.167969 C 91.621094 47.210938 91.5625 47.214844 91.507812 47.246094 C 91.4375 47.285156 91.136719 47.449219 91.136719 47.527344 C 91.136719 47.652344 91.277344 47.664062 91.371094 47.664062 C 91.628906 47.664062 91.871094 47.421875 92.035156 47.300781 C 92.042969 47.296875 92.058594 47.285156 92.074219 47.285156 C 92.121094 47.285156 92.121094 47.390625 92.121094 47.421875 C 92.121094 47.453125 92.121094 47.488281 92.109375 47.519531 C 92.097656 47.546875 92.0625 47.578125 92.035156 47.601562 C 91.867188 47.738281 91.609375 47.90625 91.328125 47.90625 C 91.117188 47.90625 90.84375 47.839844 90.84375 47.582031 C 90.84375 47.386719 91.015625 47.277344 91.179688 47.214844 C 91.082031 47.171875 91.074219 47.105469 91.074219 47.011719 C 91.074219 46.664062 91.65625 46.417969 91.953125 46.417969 C 92.015625 46.417969 92.132812 46.449219 92.132812 46.527344 C 92.132812 46.683594 91.980469 46.816406 91.824219 46.816406 " fill-opacity="1" fill-rule="nonzero"/><path fill="#fd5ea6" d="M 93.410156 45.46875 C 93.316406 45.46875 92.820312 46.183594 92.75 46.3125 C 92.648438 46.488281 92.550781 46.710938 92.488281 46.902344 C 92.660156 46.703125 93.425781 45.6875 93.425781 45.496094 C 93.425781 45.484375 93.421875 45.46875 93.410156 45.46875 M 92.417969 47.300781 C 92.410156 47.359375 92.386719 47.414062 92.386719 47.46875 C 92.386719 47.582031 92.472656 47.644531 92.578125 47.644531 C 92.796875 47.644531 93.039062 47.285156 93.113281 47.285156 C 93.160156 47.285156 93.160156 47.382812 93.160156 47.414062 L 93.160156 47.449219 C 93.160156 47.527344 93.121094 47.566406 93.078125 47.613281 C 92.9375 47.773438 92.679688 47.90625 92.460938 47.90625 C 92.226562 47.90625 92.117188 47.753906 92.117188 47.527344 C 92.117188 47.042969 92.4375 46.332031 92.714844 45.9375 C 92.929688 45.632812 93.265625 45.207031 93.507812 45.207031 C 93.613281 45.207031 93.71875 45.273438 93.71875 45.386719 C 93.71875 45.792969 92.714844 46.972656 92.417969 47.300781 " fill-opacity="1" fill-rule="nonzero"/><path fill="#fd5ea6" d="M 93.117188 48.90625 C 93.101562 48.90625 93.082031 48.910156 93.066406 48.910156 C 92.949219 48.910156 92.90625 48.835938 92.90625 48.746094 C 92.90625 48.664062 92.9375 48.570312 92.980469 48.492188 C 93.128906 48.214844 93.378906 48.019531 93.417969 47.964844 C 93.449219 47.921875 93.523438 47.773438 93.683594 47.472656 C 93.5 47.671875 93.289062 47.878906 93.09375 47.902344 L 93.082031 47.902344 C 93.035156 47.902344 92.984375 47.882812 92.941406 47.855469 C 92.890625 47.820312 92.878906 47.746094 92.878906 47.699219 C 92.878906 47.691406 92.878906 47.683594 92.878906 47.675781 C 92.902344 47.414062 92.992188 47.367188 93.222656 46.941406 C 93.386719 46.6875 93.453125 46.480469 93.519531 46.480469 C 93.550781 46.480469 93.652344 46.53125 93.652344 46.613281 C 93.652344 46.722656 93.191406 47.445312 93.191406 47.558594 C 93.191406 47.570312 93.199219 47.574219 93.207031 47.574219 C 93.300781 47.574219 93.839844 47.089844 94.09375 46.707031 C 94.171875 46.59375 94.242188 46.472656 94.308594 46.472656 C 94.324219 46.472656 94.417969 46.484375 94.441406 46.511719 C 94.457031 46.535156 94.472656 46.542969 94.472656 46.566406 C 94.472656 46.578125 94.46875 46.59375 94.449219 46.628906 C 94.421875 46.683594 93.902344 47.535156 93.691406 47.964844 C 93.941406 47.757812 94.214844 47.511719 94.445312 47.300781 C 94.457031 47.292969 94.46875 47.285156 94.484375 47.285156 C 94.519531 47.285156 94.539062 47.355469 94.539062 47.453125 C 94.539062 47.484375 94.53125 47.507812 94.519531 47.515625 C 94.148438 47.800781 93.875 48.050781 93.53125 48.417969 C 93.496094 48.457031 93.308594 48.882812 93.117188 48.90625 " fill-opacity="1" fill-rule="nonzero"/><path fill="#fd5ea6" d="M 97.226562 47.5 C 97.363281 47.46875 97.566406 47.292969 97.777344 47.058594 C 97.800781 47.03125 97.816406 47.003906 97.832031 47.003906 C 97.859375 47.003906 97.867188 47.132812 97.875 47.191406 C 97.878906 47.210938 97.890625 47.230469 97.890625 47.257812 C 97.890625 47.28125 97.878906 47.3125 97.847656 47.355469 C 97.710938 47.53125 97.277344 47.898438 97.089844 47.898438 C 96.929688 47.898438 96.839844 47.777344 96.839844 47.664062 C 96.839844 47.652344 96.84375 47.640625 96.84375 47.628906 C 96.890625 47.382812 97.601562 46.367188 97.941406 45.894531 C 97.460938 46.390625 96.335938 47.589844 96.09375 47.789062 C 96.070312 47.808594 96.046875 47.8125 96.015625 47.8125 C 95.929688 47.8125 95.824219 47.742188 95.824219 47.664062 L 95.824219 47.65625 C 95.832031 47.554688 96.421875 46.410156 96.71875 45.90625 C 96.355469 46.304688 95.53125 47.320312 95.105469 48.167969 C 95.085938 48.214844 95.058594 48.226562 95.027344 48.226562 C 95 48.226562 94.96875 48.21875 94.925781 48.207031 C 94.835938 48.183594 94.773438 48.132812 94.773438 48.058594 C 94.773438 47.890625 96.359375 45.671875 96.882812 45.324219 C 96.925781 45.292969 96.960938 45.285156 96.984375 45.285156 C 97.019531 45.285156 97.035156 45.308594 97.050781 45.308594 C 97.054688 45.308594 97.058594 45.304688 97.0625 45.300781 C 97.078125 45.28125 97.113281 45.273438 97.15625 45.273438 C 97.238281 45.273438 97.347656 45.3125 97.347656 45.359375 C 97.347656 45.363281 97.347656 45.367188 97.347656 45.375 C 97.3125 45.46875 96.710938 46.492188 96.382812 47.125 C 96.734375 46.703125 97.882812 45.472656 98.257812 45.25 C 98.269531 45.242188 98.285156 45.238281 98.304688 45.238281 C 98.335938 45.238281 98.375 45.246094 98.429688 45.261719 C 98.488281 45.28125 98.585938 45.28125 98.613281 45.289062 C 98.648438 45.296875 98.683594 45.320312 98.683594 45.351562 C 98.683594 45.363281 98.679688 45.371094 98.671875 45.382812 C 98.441406 45.6875 97.429688 47.046875 97.226562 47.5 " fill-opacity="1" fill-rule="nonzero"/><path fill="#fd5ea6" d="M 98.472656 47.03125 C 98.320312 47.191406 98.167969 47.457031 98.167969 47.5625 C 98.167969 47.589844 98.179688 47.605469 98.203125 47.605469 C 98.269531 47.605469 98.667969 47.257812 98.804688 47.09375 C 98.882812 46.992188 99 46.824219 99.09375 46.699219 C 98.976562 46.699219 98.746094 46.746094 98.472656 47.03125 M 99.613281 47.441406 C 99.613281 47.472656 99.609375 47.5 99.601562 47.515625 C 99.554688 47.609375 99.285156 47.898438 99.050781 47.898438 C 98.867188 47.898438 98.789062 47.753906 98.789062 47.605469 C 98.789062 47.546875 98.800781 47.488281 98.824219 47.4375 C 98.632812 47.691406 98.347656 47.890625 98.171875 47.890625 C 98.019531 47.890625 97.914062 47.773438 97.898438 47.652344 C 97.890625 47.621094 97.890625 47.59375 97.890625 47.5625 C 97.890625 47.042969 98.550781 46.492188 98.941406 46.492188 C 99.074219 46.492188 99.152344 46.542969 99.167969 46.601562 C 99.226562 46.511719 99.253906 46.503906 99.328125 46.503906 C 99.402344 46.503906 99.460938 46.53125 99.460938 46.59375 C 99.460938 46.621094 99.453125 46.652344 99.4375 46.667969 C 99.410156 46.699219 99.117188 47.175781 99.058594 47.492188 C 99.054688 47.503906 99.054688 47.523438 99.054688 47.539062 C 99.054688 47.585938 99.066406 47.636719 99.109375 47.636719 C 99.25 47.636719 99.496094 47.328125 99.527344 47.300781 C 99.539062 47.292969 99.550781 47.285156 99.566406 47.285156 C 99.582031 47.285156 99.601562 47.300781 99.601562 47.320312 C 99.605469 47.34375 99.613281 47.394531 99.613281 47.441406 " fill-opacity="1" fill-rule="nonzero"/><path fill="#fd5ea6" d="M 100.640625 47.066406 C 100.617188 47.097656 100.585938 47.121094 100.539062 47.121094 C 100.464844 47.121094 100.425781 47.054688 100.425781 46.988281 C 100.425781 46.886719 100.492188 46.785156 100.554688 46.710938 L 100.550781 46.710938 C 100.460938 46.714844 99.984375 47.214844 99.898438 47.3125 C 99.765625 47.457031 99.640625 47.609375 99.527344 47.765625 C 99.503906 47.796875 99.460938 47.839844 99.417969 47.839844 C 99.390625 47.839844 99.277344 47.796875 99.257812 47.777344 C 99.246094 47.773438 99.246094 47.761719 99.246094 47.75 C 99.246094 47.691406 99.3125 47.601562 99.351562 47.535156 C 99.503906 47.273438 99.65625 47.015625 99.8125 46.757812 C 99.863281 46.671875 99.902344 46.585938 99.964844 46.507812 C 100.023438 46.433594 100.140625 46.410156 100.230469 46.410156 C 100.265625 46.410156 100.273438 46.445312 100.273438 46.476562 C 100.273438 46.558594 100.097656 46.800781 100.046875 46.882812 C 100.210938 46.695312 100.488281 46.410156 100.753906 46.410156 C 100.847656 46.410156 100.917969 46.472656 100.917969 46.570312 C 100.917969 46.667969 100.710938 46.972656 100.640625 47.066406 " fill-opacity="1" fill-rule="nonzero"/><path fill="#fd5ea6" d="M 101.34375 46.242188 C 101.339844 46.242188 101.078125 46.273438 101.039062 46.273438 L 101.023438 46.273438 C 100.976562 46.273438 100.878906 46.257812 100.878906 46.1875 C 100.878906 46.164062 100.921875 46.136719 100.933594 46.101562 C 100.953125 46.050781 101.097656 45.972656 101.152344 45.964844 C 101.230469 45.960938 101.304688 45.960938 101.378906 45.957031 C 101.546875 45.949219 101.375 45.957031 101.539062 45.949219 C 101.613281 45.839844 101.6875 45.722656 101.777344 45.625 C 101.800781 45.597656 101.804688 45.589844 101.839844 45.589844 C 101.867188 45.589844 101.894531 45.578125 101.921875 45.578125 C 101.964844 45.578125 101.964844 45.597656 101.996094 45.597656 C 102.015625 45.597656 102.035156 45.625 102.035156 45.644531 C 102.035156 45.671875 101.882812 45.898438 101.859375 45.941406 C 101.878906 45.941406 101.988281 45.933594 102.03125 45.933594 C 102.074219 45.933594 102.113281 45.933594 102.128906 45.9375 C 102.171875 45.957031 102.183594 46.003906 102.21875 46.03125 C 102.238281 46.046875 102.25 46.054688 102.25 46.082031 C 102.25 46.152344 102.164062 46.179688 102.109375 46.183594 C 101.949219 46.203125 101.824219 46.21875 101.660156 46.226562 C 101.535156 46.421875 101.015625 47.304688 100.992188 47.480469 C 100.988281 47.507812 100.984375 47.53125 100.984375 47.550781 C 100.984375 47.617188 101.015625 47.636719 101.070312 47.636719 C 101.238281 47.636719 101.546875 47.285156 101.589844 47.285156 C 101.636719 47.285156 101.632812 47.410156 101.632812 47.441406 C 101.632812 47.507812 101.609375 47.550781 101.554688 47.597656 C 101.4375 47.699219 101.214844 47.902344 101.015625 47.902344 C 100.996094 47.902344 100.980469 47.902344 100.964844 47.898438 C 100.789062 47.863281 100.695312 47.78125 100.695312 47.554688 C 100.699219 47.28125 101.183594 46.488281 101.34375 46.242188 " fill-opacity="1" fill-rule="nonzero"/><path fill="#fd5ea6" d="M 102.902344 45.519531 C 102.910156 45.5 102.921875 45.488281 102.9375 45.488281 C 103.007812 45.488281 103.050781 45.601562 103.050781 45.664062 C 103.050781 45.773438 102.980469 45.855469 102.902344 45.902344 C 102.855469 45.949219 102.453125 46.191406 102.363281 46.191406 C 102.332031 46.191406 102.320312 46.164062 102.320312 46.144531 C 102.320312 46.132812 102.324219 46.121094 102.332031 46.113281 C 102.386719 45.960938 102.507812 45.855469 102.652344 45.738281 C 102.800781 45.617188 102.878906 45.589844 102.902344 45.519531 M 102.355469 47.519531 C 102.234375 47.769531 101.929688 47.910156 101.738281 47.910156 C 101.578125 47.910156 101.417969 47.761719 101.417969 47.605469 C 101.417969 47.433594 101.804688 46.871094 101.804688 46.84375 C 101.804688 46.800781 101.730469 46.769531 101.730469 46.726562 C 101.730469 46.699219 102.003906 46.402344 102.15625 46.402344 C 102.210938 46.402344 102.285156 46.488281 102.285156 46.542969 C 102.285156 46.578125 101.917969 47.210938 101.867188 47.296875 C 101.824219 47.367188 101.734375 47.496094 101.734375 47.578125 C 101.734375 47.628906 101.78125 47.640625 101.824219 47.640625 C 102.039062 47.640625 102.265625 47.285156 102.320312 47.285156 C 102.371094 47.285156 102.367188 47.410156 102.367188 47.441406 C 102.367188 47.464844 102.367188 47.496094 102.355469 47.519531 " fill-opacity="1" fill-rule="nonzero"/><path fill="#fd5ea6" d="M 103.746094 47.597656 C 103.617188 47.714844 103.414062 47.898438 103.207031 47.898438 C 103.066406 47.894531 102.910156 47.785156 102.910156 47.613281 C 102.910156 47.390625 103.101562 47.09375 103.25 46.878906 C 103.269531 46.851562 103.335938 46.75 103.34375 46.710938 L 103.339844 46.710938 C 103.25 46.71875 102.773438 47.214844 102.683594 47.3125 C 102.554688 47.457031 102.433594 47.609375 102.320312 47.765625 C 102.292969 47.796875 102.25 47.839844 102.207031 47.839844 C 102.179688 47.839844 102.066406 47.796875 102.046875 47.777344 C 102.035156 47.773438 102.035156 47.761719 102.035156 47.75 C 102.035156 47.691406 102.101562 47.601562 102.140625 47.535156 C 102.289062 47.273438 102.445312 47.015625 102.597656 46.757812 C 102.648438 46.671875 102.691406 46.585938 102.753906 46.507812 C 102.8125 46.433594 102.925781 46.410156 103.019531 46.410156 C 103.058594 46.410156 103.0625 46.445312 103.0625 46.476562 C 103.0625 46.558594 102.886719 46.800781 102.835938 46.882812 C 103.003906 46.695312 103.273438 46.410156 103.546875 46.410156 C 103.632812 46.410156 103.710938 46.472656 103.710938 46.570312 C 103.710938 46.675781 103.496094 46.960938 103.429688 47.066406 C 103.371094 47.15625 103.175781 47.445312 103.175781 47.566406 C 103.175781 47.621094 103.230469 47.644531 103.28125 47.644531 C 103.445312 47.644531 103.730469 47.285156 103.78125 47.285156 C 103.832031 47.285156 103.828125 47.410156 103.828125 47.441406 C 103.828125 47.5 103.804688 47.558594 103.746094 47.597656 " fill-opacity="1" fill-rule="nonzero"/><path fill="#fd5ea6" d="M 104.585938 46.816406 C 104.527344 46.816406 104.519531 46.789062 104.519531 46.738281 C 104.519531 46.71875 104.523438 46.707031 104.527344 46.691406 C 104.476562 46.710938 104.429688 46.734375 104.382812 46.761719 C 104.328125 46.792969 104.085938 46.949219 104.085938 47.015625 C 104.085938 47.027344 104.113281 47.027344 104.121094 47.027344 C 104.214844 47.027344 104.292969 46.972656 104.382812 46.972656 C 104.394531 46.972656 104.410156 46.972656 104.417969 46.972656 C 104.449219 46.988281 104.496094 47.0625 104.496094 47.089844 C 104.496094 47.121094 104.457031 47.148438 104.433594 47.167969 C 104.382812 47.210938 104.324219 47.214844 104.269531 47.246094 C 104.195312 47.285156 103.898438 47.449219 103.898438 47.527344 C 103.898438 47.652344 104.039062 47.664062 104.132812 47.664062 C 104.386719 47.664062 104.632812 47.421875 104.792969 47.300781 C 104.804688 47.296875 104.820312 47.285156 104.832031 47.285156 C 104.878906 47.285156 104.878906 47.390625 104.878906 47.421875 C 104.878906 47.453125 104.878906 47.488281 104.867188 47.519531 C 104.859375 47.546875 104.824219 47.578125 104.796875 47.601562 C 104.628906 47.738281 104.371094 47.90625 104.085938 47.90625 C 103.878906 47.90625 103.605469 47.839844 103.605469 47.582031 C 103.605469 47.386719 103.773438 47.277344 103.9375 47.214844 C 103.84375 47.171875 103.832031 47.105469 103.832031 47.011719 C 103.832031 46.664062 104.414062 46.417969 104.714844 46.417969 C 104.777344 46.417969 104.890625 46.449219 104.890625 46.527344 C 104.890625 46.683594 104.742188 46.816406 104.585938 46.816406 " fill-opacity="1" fill-rule="nonzero"/><path fill="#fd5ea6" d="M 106.117188 46.667969 C 105.925781 46.820312 105.355469 47.257812 105.164062 47.589844 C 105.332031 47.539062 106.050781 47.4375 106.132812 47.351562 C 106.144531 47.339844 106.15625 47.335938 106.171875 47.335938 C 106.1875 47.335938 106.203125 47.34375 106.226562 47.355469 C 106.242188 47.367188 106.246094 47.433594 106.246094 47.503906 C 106.246094 47.554688 106.183594 47.652344 106.140625 47.671875 C 106.054688 47.710938 105.15625 47.859375 105 47.878906 C 104.96875 47.882812 104.941406 47.882812 104.917969 47.882812 C 104.832031 47.882812 104.808594 47.855469 104.792969 47.839844 C 104.773438 47.824219 104.765625 47.757812 104.765625 47.710938 C 104.765625 47.6875 104.765625 47.664062 104.773438 47.65625 C 105.015625 47.195312 105.445312 46.933594 105.691406 46.714844 C 105.4375 46.734375 105.144531 46.746094 105.027344 46.769531 L 105.019531 46.769531 C 105 46.769531 104.984375 46.753906 104.984375 46.714844 C 104.984375 46.6875 105.050781 46.535156 105.175781 46.496094 C 105.371094 46.441406 105.503906 46.503906 106.035156 46.421875 C 106.058594 46.417969 106.113281 46.386719 106.160156 46.386719 C 106.210938 46.386719 106.261719 46.4375 106.261719 46.527344 C 106.261719 46.5625 106.253906 46.59375 106.226562 46.621094 C 106.207031 46.636719 106.179688 46.652344 106.117188 46.667969 " fill-opacity="1" fill-rule="nonzero"/></svg>