<?xml version="1.0" encoding="UTF-8"?><svg xmlns="http://www.w3.org/2000/svg" viewBox="0 0 48 45.95"><defs><style>.d{fill:#646464;}</style></defs><g id="a"/><g id="b"><g id="c"><g><path class="d" d="M29.52,39.55c-.07,0-.14,0-.21-.03h-5.09c-.07,.02-.14,.03-.21,.03s-.14,0-.21-.03h-5.09c-.07,.02-.14,.03-.21,.03s-.14,0-.21-.03H9.44v2.62c0,2.1,1.71,3.81,3.81,3.81h21.51c2.1,0,3.81-1.71,3.81-3.81v-2.62h-8.83c-.07,.02-.14,.03-.21,.03Z"/><path class="d" d="M36.03,3.02c-1.22,0-2.42,.18-3.56,.54-2.24-2.27-5.29-3.56-8.51-3.56s-6.25,1.28-8.49,3.54c-1.13-.34-2.3-.52-3.49-.52C5.37,3.02,0,8.39,0,14.99c0,4.8,2.85,8.95,6.94,10.86,1.5,.63,3.16,.98,4.89,.98,.03,0,.53,0,.58,0h0c.53,0,.96,.42,.96,.95,0,.53-.42,.96-.95,.97-.03,0-.57,0-.6,0-.82,0-1.61-.07-2.39-.2v9.06h8.09v-3.18c0-.53,.43-.96,.96-.96s.96,.43,.96,.96v3.18h3.6v-3.18c0-.53,.43-.96,.96-.96s.96,.43,.96,.96v3.18h3.6v-3.18c0-.53,.43-.96,.96-.96s.96,.43,.96,.96v3.18h8.09v-9c-.61,.08-1.23,.13-1.86,.13-2.16,0-4.23-.5-6.14-1.47-.47-.24-.66-.82-.42-1.29,.24-.47,.82-.66,1.29-.42,1.64,.84,3.41,1.26,5.26,1.26,.75,0,1.49-.07,2.2-.21,5.21-1.29,9.09-6.01,9.09-11.61,0-6.6-5.37-11.97-11.97-11.97Z"/></g></g></g></svg>