<?xml version="1.0" encoding="UTF-8"?><svg xmlns="http://www.w3.org/2000/svg" viewBox="0 0 114.5 175.86"><defs><style>.d{fill:#00553e;}</style></defs><g id="a"/><g id="b"><g id="c"><g><path class="d" d="M24.84,50.27v12.27c-.24-.03-.47-.07-.72-.07-2.76,0-5,2.24-5,5v7.63c0,2.76,2.24,5,5,5,1.1,0,2.11-.37,2.94-.97,4.59,15.4,15.8,26.59,28.52,26.59s23.93-11.19,28.52-26.59c.83,.61,1.84,.97,2.94,.97,2.76,0,5-2.24,5-5v-7.63c0-2.76-2.24-5-5-5-.25,0-.48,.04-.72,.07v-12.43c8.14-3.67,13.83-11.85,13.83-21.35,0-12.9-10.5-23.4-23.4-23.4-1.95,0-3.86,.24-5.72,.7-4.28-3.89-9.84-6.06-15.71-6.06s-11.41,2.16-15.68,6.03c-1.82-.45-3.69-.67-5.59-.67-12.9,0-23.4,10.5-23.4,23.4,0,9.64,5.86,17.93,14.2,21.51ZM34.05,15.36c1.77,0,3.49,.34,5.12,1.01,2.03,.84,4.38,.25,5.78-1.45,2.56-3.13,6.34-4.92,10.37-4.92s7.84,1.81,10.4,4.96c1.4,1.72,3.78,2.32,5.82,1.45,1.65-.7,3.4-1.05,5.21-1.05,7.39,0,13.4,6.01,13.4,13.4s-6.01,13.4-13.4,13.4c-.72,0-1.44-.06-2.14-.17-2.72-.43-5.29,1.42-5.73,4.15-.44,2.73,1.42,5.29,4.15,5.73,1.08,.17,2.19,.26,3.29,.28v10.28H34.84v-10.26h.06c2.75-.03,4.96-2.29,4.93-5.04-.02-2.75-2.26-4.96-5-4.96h-.78c-7.39,0-13.4-6.01-13.4-13.4s6.01-13.4,13.4-13.4Z"/><path class="d" d="M44.91,111.21c-.78-1.85-2.6-3.06-4.61-3.06h-9.37c-14.49,0-27.23,10.27-30.3,24.42-.95,4.38-.84,9,.32,13.74l6.31,25.74c.55,2.24,2.55,3.81,4.86,3.81H31.74v-48.91l17.1-6.41-3.94-9.33Z"/><path class="d" d="M113.86,132.57c-2.08-9.61-8.69-17.75-17.69-21.76-3.97-1.77-8.21-2.67-12.61-2.67h-16.88c-2.1,0-3.97,1.31-4.7,3.28l-4.47,12.21-19.77,7.46v44.75H102.37c2.3,0,4.31-1.57,4.86-3.81l6.31-25.74c1.16-4.74,1.27-9.36,.32-13.74Zm-62.52,32.62c-2.11,.03-3.84-1.66-3.86-3.76-.03-2.11,1.66-3.84,3.76-3.86,2.11-.03,3.84,1.66,3.86,3.76,.03,2.11-1.66,3.84-3.76,3.86Zm0-19.07c-2.11,.03-3.84-1.66-3.86-3.76-.03-2.11,1.66-3.84,3.76-3.86,2.11-.03,3.84,1.66,3.86,3.76,.03,2.11-1.66,3.84-3.76,3.86Zm17.16,19.07c-2.11,.03-3.84-1.66-3.86-3.76-.03-2.11,1.66-3.84,3.76-3.86,2.11-.03,3.84,1.66,3.86,3.76,.03,2.11-1.66,3.84-3.76,3.86Zm0-19.07c-2.11,.03-3.84-1.66-3.86-3.76-.03-2.11,1.66-3.84,3.76-3.86,2.11-.03,3.84,1.66,3.86,3.76,.03,2.11-1.66,3.84-3.76,3.86Z"/></g></g></g></svg>