<?xml version="1.0" encoding="UTF-8"?><svg xmlns="http://www.w3.org/2000/svg" viewBox="0 0 38.47 48"><defs><style>.d{fill:#646464;}</style></defs><g id="a"/><g id="b"><g id="c"><path class="d" d="M37.28,.99c-.26-.54-.77-.9-1.37-.97-.56-.07-1.12,.15-1.48,.58L12.61,26.6c-.18,.21-.28,.47-.32,.73-.25,.08-.48,.23-.66,.44L.88,40.58c-1.42,1.7-1.09,4.33,.75,5.88l.56,.47c1.84,1.54,4.49,1.41,5.92-.28l10.75-12.81c.13-.15,.22-.32,.27-.5,.34-.05,.67-.21,.91-.5l.38-.46,2.69,2.25c.61,.51,1.53,.43,2.04-.18C41.86,14.53,38.66,3.8,37.28,.99Zm-15.28,28.94c-1.07-.9-2.62-.82-3.46,.18l-.73,.87s-.03,.04-.04,.06l-3-2.52s.04-.03,.05-.05L35.29,4.09c.81,3.75,.62,12.6-11.44,27.39l-1.84-1.55Z"/></g></g></svg>