<?xml version="1.0" encoding="UTF-8"?><svg xmlns="http://www.w3.org/2000/svg" viewBox="0 0 12.14 48"><defs><style>.d{fill:#646464;}</style></defs><g id="a"/><g id="b"><g id="c"><path class="d" d="M2.02,.13C1.56-.08,1.05-.03,.63,.24,.24,.49,0,.92,0,1.39V29.54c0,.23,.07,.45,.18,.63-.11,.18-.18,.4-.18,.63v13.86c0,1.84,1.62,3.33,3.61,3.33h.6c1.99,0,3.61-1.5,3.61-3.33v-13.86c0-.16-.03-.32-.09-.46,.19-.21,.31-.49,.31-.8v-.5h2.91c.66,0,1.2-.54,1.2-1.2C12.14,6.29,4.39,1.18,2.02,.13ZM7.74,26.65c-1.16,0-2.1,.88-2.1,1.95v.94s0,.04,0,.06H2.39s0-.04,0-.06V3.16c2.51,1.95,7.11,7.67,7.33,23.49h-2Z"/></g></g></svg>