<?xml version="1.0" encoding="UTF-8"?><svg xmlns="http://www.w3.org/2000/svg" viewBox="0 0 24 24"><defs><style>.d{fill:#646464;}</style></defs><g id="a"/><g id="b"><g id="c"><g><path class="d" d="M17.43,21.28l-.03-.1c-.3-.7-.94-1.15-1.63-1.15h-2v-1.16c0-.36-.27-.66-.6-.66h-.77c-.29,0-.56,.21-.61,.52-.08,.42,.22,.8,.59,.8h.19v.66h-3.31v-1.26c0-.32-.19-.61-.48-.67-.39-.09-.73,.24-.73,.65v1.28h-3.31v-.66h.34c.1,0,.19-.04,.25-.12,.44-.56,.09-1.2-.4-1.2h-1.07c-.18,0-.32,.16-.32,.35v1.46h-1.45c-.69,0-1.33,.45-1.63,1.15l-.39,1.43c-.14,.38-.06,.81,.22,1.11,.17,.19,.41,.28,.65,.28h15.99c.24,0,.48-.09,.65-.28,.28-.3,.35-.74,.22-1.11l-.36-1.33Z"/><path class="d" d="M23.37,6.16h-4.94c-.16,0-.3,.15-.3,.33v.31l-1.33,.82c-.16-.19-.39-.3-.63-.3H1.18c-.22,0-.44,.08-.6,.25-.27,.28-.35,.69-.22,1.05l.84,2.56s.01,.03,.02,.04c.26,.64,.84,1.06,1.48,1.06H14.62c.65,0,1.24-.42,1.48-1.08v-.02l.67-2.03,1.42-.87c.08,.13,.22,.21,.37,.21h4.81c.35,0,.63-.31,.63-.69v-.93c0-.38-.28-.69-.63-.69Z"/><path class="d" d="M8.64,17.18h.03c.22-.01,.66-.16,.87-.61,.28-.61,.08-1.49-.63-2.7-.06-.09-.15-.15-.25-.15s-.2,.06-.25,.15c-.71,1.21-.92,2.1-.63,2.7,.21,.45,.65,.6,.87,.61Z"/><path class="d" d="M12.86,17.18h.03c.22-.01,.66-.16,.87-.61,.28-.61,.08-1.49-.63-2.7-.06-.09-.15-.15-.25-.15s-.2,.06-.25,.15c-.71,1.21-.92,2.1-.63,2.7,.21,.45,.65,.6,.87,.61Z"/><path class="d" d="M4.43,17.18h.03c.22-.01,.66-.16,.87-.61,.28-.61,.08-1.49-.63-2.7-.06-.09-.15-.15-.25-.15s-.2,.06-.25,.15c-.71,1.21-.92,2.1-.63,2.7,.21,.45,.65,.6,.87,.61Z"/><path class="d" d="M5.26,3.47l-.03,.05c-.61,1.1-.23,2.01,.06,2.34,.09,.1,.21,.15,.33,.15,.11,0,.23-.05,.31-.14,.18-.19,.19-.5,.01-.7-.03-.04-.32-.43,.03-1.1,.28-.36,.61-1.24,.02-2.29-.13-.23-.41-.31-.62-.16-.21,.14-.28,.45-.15,.68,.39,.69,.09,1.09,.06,1.13l-.03,.04Z"/><path class="d" d="M8.41,2.77l-.02,.04c-.68,1.76,.01,2.93,.04,2.98,.09,.14,.23,.22,.37,.22,.08,0,.17-.03,.25-.08,.21-.15,.27-.45,.13-.68-.02-.03-.44-.79,.03-2.01,.13-.25,.62-1.35,.01-2.93-.1-.25-.36-.37-.59-.26-.23,.11-.34,.4-.24,.65,.48,1.25,.06,2.01,.04,2.04l-.02,.04Z"/><path class="d" d="M11.64,3.47l-.03,.05c-.61,1.1-.23,2.01,.06,2.34,.09,.1,.21,.15,.33,.15,.11,0,.23-.05,.31-.14,.18-.19,.19-.5,.01-.7-.03-.04-.32-.43,.03-1.1,.28-.36,.61-1.24,.02-2.29-.13-.23-.41-.31-.62-.16-.21,.14-.28,.45-.15,.68,.39,.69,.09,1.09,.06,1.13l-.03,.04Z"/></g></g></g></svg>