<?xml version="1.0" encoding="UTF-8"?><svg xmlns="http://www.w3.org/2000/svg" viewBox="0 0 159.11 159.92"><defs><style>.d{fill:#646464;}</style></defs><g id="a"/><g id="b"><g id="c"><g><path class="d" d="M26.23,.28h0c-5.24,0-10.8,2.71-14.86,7.24C4.25,15.46-4.47,39.82,2.64,55.81c2.5,5.63,7.95,12.22,19.68,13.48v13.88c-3.92,.52-6.95,3.87-6.95,7.92v60.83c0,4.41,3.59,8,8,8h5.9c4.41,0,8-3.59,8-8v-60.83c0-4.05-3.03-7.41-6.95-7.92v-13.85c11.73-1.19,17.18-7.73,19.68-13.32,7.15-16-1.69-40.48-8.89-48.47C37.03,2.99,31.47,.28,26.23,.28Zm16.47,52.44c-2.65,5.92-7.96,8.8-16.25,8.8h-.12c-8.36-.03-13.72-2.96-16.39-8.96-5.4-12.16,1.64-33.31,7.37-39.69,3.03-3.38,6.58-4.58,8.9-4.58h0c2.32,0,5.89,1.21,8.94,4.59,5.8,6.44,12.97,27.69,7.53,39.85Z"/><path class="d" d="M88.02,46.18c2.21,0,4-1.79,4-4V4c0-2.21-1.79-4-4-4s-4,1.79-4,4V42.18c0,2.21,1.79,4,4,4Z"/><path class="d" d="M105.4,0c-2.21,0-4,1.79-4,4V43.39c0,7.38-6,13.38-13.38,13.38s-13.38-6-13.38-13.38V4c0-2.21-1.79-4-4-4s-4,1.79-4,4V43.39c0,10.42,7.5,19.11,17.38,20.99v18.04c-3.92,.52-6.95,3.87-6.95,7.92v61.58c0,4.41,3.59,8,8,8h5.9c4.41,0,8-3.59,8-8v-61.58c0-4.05-3.04-7.41-6.95-7.92v-18.04c9.88-1.88,17.38-10.57,17.38-20.99V4c0-2.21-1.79-4-4-4Z"/><path class="d" d="M159.11,99.15c0-34.7-2.81-60.62-8.36-77.03-4.83-14.31-10.82-18.42-13.69-20.39-.23-.16-.44-.3-.63-.44-1.57-1.15-3.61-1.32-5.33-.45-1.88,.95-3.05,2.94-3.05,5.18V151.29c0,4.76,3.87,8.63,8.63,8.63h4.63c4.76,0,8.63-3.87,8.63-8.63v-48.14h9.16v-4Zm-9.16-4h-13.9V11.29c5.8,6.25,14.67,23.98,15.05,83.87h-1.15Z"/></g></g></g></svg>