<?xml version="1.0" encoding="UTF-8"?><svg xmlns="http://www.w3.org/2000/svg" viewBox="0 0 24 24"><defs><style>.d{fill:#646464;}</style></defs><g id="a"/><g id="b"><g id="c"><g><path class="d" d="M3.96,.04h0C3.17,.04,2.33,.45,1.71,1.13,.64,2.32-.67,5.98,.4,8.38c.38,.84,1.2,1.83,2.97,2.02v2.08c-.59,.08-1.05,.58-1.05,1.19v9.13c0,.66,.54,1.2,1.21,1.2h.89c.67,0,1.21-.54,1.21-1.2V13.67c0-.61-.46-1.11-1.05-1.19v-2.08c1.77-.18,2.59-1.16,2.97-2,1.08-2.4-.25-6.07-1.34-7.27C5.59,.45,4.75,.04,3.96,.04Zm2.48,7.87c-.4,.89-1.2,1.32-2.45,1.32h-.02c-1.26,0-2.07-.44-2.47-1.35-.82-1.82,.25-5,1.11-5.96,.46-.51,.99-.69,1.34-.69h0c.35,0,.89,.18,1.35,.69,.87,.97,1.96,4.16,1.14,5.98Z"/><path class="d" d="M13.28,6.93c.33,0,.6-.27,.6-.6V.6c0-.33-.27-.6-.6-.6s-.6,.27-.6,.6V6.33c0,.33,.27,.6,.6,.6Z"/><path class="d" d="M15.9,0c-.33,0-.6,.27-.6,.6V6.51c0,1.11-.91,2.01-2.02,2.01s-2.02-.9-2.02-2.01V.6c0-.33-.27-.6-.6-.6s-.6,.27-.6,.6V6.51c0,1.56,1.13,2.87,2.62,3.15v2.71c-.59,.08-1.05,.58-1.05,1.19v9.24c0,.66,.54,1.2,1.21,1.2h.89c.67,0,1.21-.54,1.21-1.2V13.56c0-.61-.46-1.11-1.05-1.19v-2.71c1.49-.28,2.62-1.59,2.62-3.15V.6c0-.33-.27-.6-.6-.6Z"/><path class="d" d="M24,14.88c0-5.21-.42-9.1-1.26-11.56-.73-2.15-1.63-2.76-2.07-3.06-.03-.02-.07-.05-.09-.07-.24-.17-.54-.2-.8-.07-.28,.14-.46,.44-.46,.78V22.7c0,.71,.58,1.3,1.3,1.3h.7c.72,0,1.3-.58,1.3-1.3v-7.22h1.38v-.6Zm-1.38-.6h-2.1V1.69c.88,.94,2.21,3.6,2.27,12.59h-.17Z"/></g></g></g></svg>